<ttFont>
<head>
    <!-- Most of this table will be recalculated by the compiler -->
    <tableVersion value="1.0"/>
    <fontRevision value="4.00299"/>
    <checkSumAdjustment value="0x312ca581"/>
    <magicNumber value="0x5f0f3cf5"/>
    <flags value="00000000 00000011"/>
    <unitsPerEm value="1000"/>
    <created value="Tue Mar  5 22:40:12 2019"/>
    <modified value="Tue Mar  5 22:40:12 2019"/>
    <xMin value="-492"/>
    <yMin value="-543"/>
    <xMax value="2707"/>
    <yMax value="1026"/>
    <macStyle value="00000000 00000010"/>
    <lowestRecPPEM value="3"/>
    <fontDirectionHint value="2"/>
    <indexToLocFormat value="0"/>
    <glyphDataFormat value="0"/>
  </head>
          <CharString index="0">
            -77 callgsubr
            -133 -25 60 276 callsubr
            40 -96 -145 -27 188 callsubr
            return
          </CharString>
          <CharString index="1">
            160 callsubr
            1 4 1 7 2 8 -101 callgsubr
            return
          </CharString>
          <CharString index="2">
            hlineto
            -95 callsubr
            return
          </CharString>
          <CharString index="3">
            -105 callsubr
            542 280 callgsubr
            return
          </CharString>
          <CharString index="4">
            -20 callsubr
            134 24 113 79 117 -81 callsubr
            return
          </CharString>
          <CharString index="5">
            hlineto
            -3 -16 rlineto
            443 -100 callsubr
            return
          </CharString>
          <CharString index="6">
            hlineto
            128 103 41 155 28 -96 callsubr
            return
          </CharString>
          <CharString index="7">
            101 callgsubr
            -103 callgsubr
            return
          </CharString>
          <CharString index="8">
            rlineto
            -106 callgsubr
            33 190 rlineto
            return
          </CharString>
          <CharString index="9">
            -58 callgsubr
            70 54 87 507 callgsubr
            return
          </CharString>
          <CharString index="10">
            -12 callsubr
            -16 65 57 10 hvcurveto
            6 31 rlineto
            -17 hlineto
            -6 -30 rlineto
            -69 -12 28 -22 callgsubr
            return
          </CharString>
          <CharString index="11">
            hvcurveto
            15 89 rlineto
            440 callsubr
            -126 -26 -116 -81 -122 hhcurveto
            return
          </CharString>
          <CharString index="12">
            -3 -16 rlineto
            return
          </CharString>
          <CharString index="13">
            hmoveto
            -104 callgsubr
            return
          </CharString>
          <CharString index="14">
            -91 callsubr
            29 return
          </CharString>
          <CharString index="15">
            -146 -27 98 -104 146 hhcurveto
            156 112 106 151 26 hvcurveto
            -17 hlineto
            -141 -24 -108 -100 -142 hhcurveto
            -139 -89 97 136 25 hvcurveto
            167 30 133 78 151 hhcurveto
            return
          </CharString>
          <CharString index="16">
            -94 callgsubr
            161 return
          </CharString>
          <CharString index="17">
            -48 callsubr
            -120 -112 -85 -140 -25 hvcurveto
            return
          </CharString>
          <CharString index="18">
            -83 callsubr
            -149 return
          </CharString>
          <CharString index="19">
            -35 callgsubr
            129 109 67 130 24 hvcurveto
            122 23 -68 81 -112 hhcurveto
            -132 -92 -105 -144 hvcurveto
            17 hlineto
            133 82 100 125 98 63 -70 -113 -20 vhcurveto
            -119 -21 -104 -66 -118 hhcurveto
            -153 hlineto
            -28 -160 rlineto
            -127 -23 51 -87 127 hhcurveto
            108 callsubr
            return
          </CharString>
          <CharString index="20">
            17 hlineto
            1 8 rlineto
            -82 callsubr
            return
          </CharString>
          <CharString index="21">
            -62 -353 rlineto
            17 hlineto
            63 359 rlineto
            -69 callsubr
            return
          </CharString>
          <CharString index="22">
            rmoveto
            18 16 17 18 14 -9 11 -14 -19 -16 -17 -18 -14 9 -11 15 hvcurveto
            134 hmoveto
            18 16 17 19 13 -9 11 -14 -19 -16 -17 -18 -14 9 -11 15 hvcurveto
            return
          </CharString>
          <CharString index="23">
            vstem
            157 704 rmoveto
            -78 -437 rlineto
            -194 -34 85 -80 138 hhcurveto
            138 108 80 194 34 397 callsubr
            -20 hlineto
            -78 -437 rlineto
            -188 -33 -102 -68 -122 hhcurveto
            -124 -81 68 188 33 397 callsubr
            return
          </CharString>
          <CharString index="24">
            -62 callgsubr
            -255 rlineto
            return
          </CharString>
          <CharString index="25">
            551 callsubr
            -92 -111 -19 hvcurveto
            -124 -22 -84 -96 -138 hhcurveto
            -10 -10 1 1 -11 427 callsubr
            return
          </CharString>
          <CharString index="26">
            -20 callgsubr
            -92 -17 -82 -121 -157 hhcurveto
            return
          </CharString>
          <CharString index="27">
            hlineto
            -3 -16 rlineto
            377 -61 callgsubr
            return
          </CharString>
          <CharString index="28">
            83 139 24 hvcurveto
            45 255 rlineto
            return
          </CharString>
          <CharString index="29">
            1017 410 rmoveto
            -95 hlineto
            104 7 -71 70 -107 hhcurveto
            -113 -68 -67 -77 -35 473 callsubr
            685 101 callgsubr
            -37 callgsubr
            -51 callsubr
            return
          </CharString>
          <CharString index="30">
            hlineto
            -91 callgsubr
            return
          </CharString>
          <CharString index="31">
            29 164 rlineto
            7 7 0 7 hhcurveto
            88 90 32 153 27 hvcurveto
            28 161 rlineto
            return
          </CharString>
          <CharString index="32">
            -42 -241 rlineto
            17 hlineto
            56 321 rlineto
            -15 hlineto
            -128 -22 -117 -48 -80 hhcurveto
            152 callsubr
            return
          </CharString>
          <CharString index="33">
            -47 callsubr
            89 70 48 74 38 hvcurveto
            76 callgsubr
            return
          </CharString>
          <CharString index="34">
            -60 callgsubr
            116 85 79 86 42 hvcurveto
            return
          </CharString>
          <CharString index="35">
            724 -53 callsubr
            return
          </CharString>
          <CharString index="36">
            hhcurveto
            106 87 73 103 18 -57 callsubr
            return
          </CharString>
          <CharString index="37">
            -89 callsubr
            -26 return
          </CharString>
          <CharString index="38">
            193 callgsubr
            106 77 76 callsubr
            -96 callgsubr
            return
          </CharString>
          <CharString index="39">
            -91 -16 69 -40 92 hhcurveto
            45 hlineto
            121 57 -56 -92 -17 hvcurveto
            -70 -12 -58 -64 -114 hhcurveto
            -132 -52 76 81 1 hvcurveto
            -15 hlineto
            -44 -244 rlineto
            17 hlineto
            34 188 rlineto
            -29 5 44 -88 138 hhcurveto
            125 65 70 80 15 hvcurveto
            return
          </CharString>
          <CharString index="40">
            77 callsubr
            -46 callgsubr
            return
          </CharString>
          <CharString index="41">
            12 callsubr
            endchar
          </CharString>
          <CharString index="42">
            129 callgsubr
            30 170 rlineto
            -17 hlineto
            -30 -169 -18 -103 50 -77 95 -1 rlinecurve
            173 callsubr
            return
          </CharString>
          <CharString index="43">
            162 -77 callsubr
            return
          </CharString>
          <CharString index="44">
            -68 callgsubr
            71 54 87 hhcurveto
            122 47 callsubr
            return
          </CharString>
          <CharString index="45">
            -33 callsubr
            127 724 rlineto
            162 hlineto
            return
          </CharString>
          <CharString index="46">
            -105 callsubr
            135 hlineto
            return
          </CharString>
          <CharString index="47">
            -105 callsubr
            328 344 callgsubr
            -85 -25 -69 150 callsubr
            return
          </CharString>
          <CharString index="48">
            29 164 373 callsubr
            11 callgsubr
            return
          </CharString>
          <CharString index="49">
            -89 60 -49 93 120 90 66 90 48 vhcurveto
            -255 -139 rmoveto
            -83 -55 44 77 99 80 70 130 hvcurveto
            209 hlineto
            -8 -44 rlineto
            -148 -26 -114 -98 -133 hhcurveto
            endchar
          </CharString>
          <CharString index="50">
            15 callsubr
            287 hlineto
            39 callsubr
            return
          </CharString>
          <CharString index="51">
            -55 callsubr
            endchar
          </CharString>
          <CharString index="52">
            -171 -31 86 -111 161 12 callsubr
            return
          </CharString>
          <CharString index="53">
            hhcurveto
            14 12 10 14 2 hvcurveto
            return
          </CharString>
          <CharString index="54">
            rlineto
            -64 callsubr
            return
          </CharString>
          <CharString index="55">
            724 -93 callgsubr
            return
          </CharString>
          <CharString index="56">
            -753 -267 -107 callgsubr
            1001 468 121 callsubr
            return
          </CharString>
          <CharString index="57">
            218 callgsubr
            -67 -59 -98 -17 59 callgsubr
            89 16 61 51 72 25 callsubr
            55 -63 91 hhcurveto
            return
          </CharString>
          <CharString index="58">
            724 rlineto
            return
          </CharString>
          <CharString index="59">
            75 -12 -54 66 -114 hhcurveto
            return
          </CharString>
          <CharString index="60">
            -70 callsubr
            49 -89 131 hhcurveto
            return
          </CharString>
          <CharString index="61">
            275 247 64 callgsubr
            return
          </CharString>
          <CharString index="62">
            -67 -28 -28 -35 -7 -38 rlinecurve
            542 callsubr
            50 hhcurveto
            20 23 4 8 22 hvcurveto
            4 20 rlineto
            -8 -23 -23 -5 -20 hhcurveto
            -39 -27 17 39 7 hvcurveto
            5 29 23 29 57 24 return
          </CharString>
          <CharString index="63">
            3 17 rlineto
            -1 -11 -10 -1 -10 hhcurveto
            return
          </CharString>
          <CharString index="64">
            23 callgsubr
            395 callgsubr
            18 callgsubr
            return
          </CharString>
          <CharString index="65">
            91 16 77 76 145 hhcurveto
            24 459 callgsubr
            -24 307 callsubr
            18 hvcurveto
            24 135 rlineto
            452 530 callgsubr
            -73 -3 -87 -43 -21 -118 rlinecurve
            -6 -32 0 -36 7 -39 rrcurveto
            return
          </CharString>
          <CharString index="66">
            rmoveto
            136 24 123 92 131 hhcurveto
            137 83 -100 -136 -24 hvcurveto
            -135 -24 -123 -93 -131 hhcurveto
            -135 -85 101 135 24 hvcurveto
            return
          </CharString>
          <CharString index="67">
            -101 -18 63 -4 callsubr
            return
          </CharString>
          <CharString index="68">
            218 callsubr
            336 callgsubr
            return
          </CharString>
          <CharString index="69">
            164 callsubr
            -178 -95 callgsubr
            return
          </CharString>
          <CharString index="70">
            hlineto
            -3 -16 rlineto
            542 112 callsubr
            return
          </CharString>
          <CharString index="71">
            119 hhcurveto
            54 -77 callsubr
            -54 hlineto
            -118 -47 64 89 16 hvcurveto
            return
          </CharString>
          <CharString index="72">
            -18 callsubr
            273 callsubr
            return
          </CharString>
          <CharString index="73">
            529 rmoveto
            120 106 -76 -174 -40 hvcurveto
            -470 hlineto
            172 30 131 421 callsubr
            return
          </CharString>
          <CharString index="74">
            -39 callsubr
            17 hlineto
            return
          </CharString>
          <CharString index="75">
            -87 119 hhcurveto
            -52 callgsubr
            return
          </CharString>
          <CharString index="76">
            445 -26 callgsubr
            return
          </CharString>
          <CharString index="77">
            -83 -141 -25 callsubr
            return
          </CharString>
          <CharString index="78">
            444 callgsubr
            -18 -77 -75 -101 hhcurveto
            -115 -43 82 115 21 hvcurveto
            25 145 459 callsubr
            return
          </CharString>
          <CharString index="79">
            rmoveto
            16 16 14 368 callsubr
            -11 14 -16 hhcurveto
            -16 -17 -14 398 callsubr
            12 -14 16 hhcurveto
            endchar
          </CharString>
          <CharString index="80">
            hhcurveto
            -135 -74 -83 -72 -28 hvcurveto
            17 hlineto
            61 25 70 78 122 hhcurveto
            136 48 -102 -111 -20 hvcurveto
            -115 -20 -84 -101 -136 hhcurveto
            -120 -42 75 63 -6 hvcurveto
            -17 hlineto
            -68 6 45 -87 133 hhcurveto
            return
          </CharString>
          <CharString index="81">
            36 callgsubr
            -76 callsubr
            return
          </CharString>
          <CharString index="82">
            hhcurveto
            -103 -81 48 104 19 hvcurveto
            77 13 64 63 -74 callgsubr
            return
          </CharString>
          <CharString index="83">
            334 rmoveto
            96 17 80 -98 callgsubr
            -31 callgsubr
            return
          </CharString>
          <CharString index="84">
            hhcurveto
            -132 -121 -91 399 callgsubr
            -146 -25 98 -87 131 hhcurveto
            return
          </CharString>
          <CharString index="85">
            221 callgsubr
            -18 hlineto
            -3 -10 -3 -14 -2 -11 return
          </CharString>
          <CharString index="86">
            154 rmoveto
            -106 callsubr
            return
          </CharString>
          <CharString index="87">
            rmoveto
            -121 -81 111 callsubr
            return
          </CharString>
          <CharString index="88">
            -75 callsubr
            endchar
          </CharString>
          <CharString index="89">
            hlineto
            -15 -89 rlineto
            -13 callsubr
            return
          </CharString>
          <CharString index="90">
            -147 52 callsubr
            return
          </CharString>
          <CharString index="91">
            559 callsubr
            135 32 -92 -78 -14 hvcurveto
            -103 -18 -84 -71 -111 hhcurveto
            -110 -69 73 107 19 hvcurveto
            444 callgsubr
            -21 77 -79 119 hhcurveto
            120 92 76 510 callgsubr
            return
          </CharString>
          <CharString index="92">
            17 hlineto
            -6 39 -1 36 6 32 rrcurveto
            113 20 87 35 62 hhcurveto
            73 70 -57 -133 -24 hvcurveto
            return
          </CharString>
          <CharString index="93">
            16 -12 callgsubr
            return
          </CharString>
          <CharString index="94">
            -149 -27 -103 -22 callsubr
            return
          </CharString>
          <CharString index="95">
            hlineto
            -55 -310 rlineto
            -61 -11 -35 -64 -87 hhcurveto
            -83 return
          </CharString>
          <CharString index="96">
            148 26 76 93 113 hhcurveto
            return
          </CharString>
          <CharString index="97">
            -147 12 callgsubr
            return
          </CharString>
          <CharString index="98">
            -16 rlineto
            162 hlineto
            -128 -724 rlineto
            return
          </CharString>
          <CharString index="99">
            -91 -16 55 -63 91 -43 callgsubr
          </CharString>
          <CharString index="100">
            202 callgsubr
            -179 hlineto
            return
          </CharString>
          <CharString index="101">
            -10 -14 -2 hvcurveto
            -14 return
          </CharString>
          <CharString index="102">
            172 -289 -70 162 vvcurveto
            77 71 47 88 87 73 -52 -85 -12 vhcurveto
            20 hlineto
            94 13 -78 61 -100 hhcurveto
            -101 -81 -57 -85 hvcurveto
            -179 289 68 -153 vvcurveto
            -72 -62 -58 -110 -103 -51 49 78 6 vhcurveto
            -20 hlineto
            return
          </CharString>
          <CharString index="103">
            179 callsubr
            87 73 103 18 hvcurveto
            return
          </CharString>
          <CharString index="104">
            384 callgsubr
            hintmask 10101110
            60 270 35 callsubr
            96 44 hvcurveto
            hintmask 01011110
            64 callsubr
            hintmask 10101110
            96 456 callsubr
            -89 callgsubr
            return
          </CharString>
          <CharString index="105">
            18 104 rlineto
            232 hlineto
            39 callgsubr
            return
          </CharString>
          <CharString index="106">
            16 callgsubr
            -104 -19 65 -89 154 hhcurveto
            133 77 71 88 16 hvcurveto
            42 callsubr
            return
          </CharString>
          <CharString index="107">
            730 428 callgsubr
            8 16 399 16 12 16 136 -14 callsubr
            336 18 -10 10 -10 16 hintmask 1010111010100000
            1403 -52 callsubr
            -1385 -105 callsubr
            1198 hlineto
            -25 -136 rlineto
            -104 hlineto
            hintmask 1010111010010000
            -120 -116 -49 -116 -50 hvcurveto
            hintmask 1111111010010000
            80 -7 -51 57 -91 hhcurveto
            -122 -62 -95 -78 -25 hvcurveto
            -107 callsubr
            hintmask 1011111100100000
            89 callgsubr
            -11 callsubr
            106 42 -86 -104 -17 hvcurveto
            hintmask 1010111011000000
            -130 -23 475 callgsubr
            return
          </CharString>
          <CharString index="108">
            50 callgsubr
            32 callsubr
            return
          </CharString>
          <CharString index="109">
            vstem
            74 351 8 callgsubr
            return
          </CharString>
          <CharString index="110">
            41 callsubr
            509 callsubr
            -74 -114 131 callgsubr
            return
          </CharString>
          <CharString index="111">
            rmoveto
            461 callgsubr
            129 101 76 95 44 hvcurveto
            -32 -184 rlineto
            -139 -25 -112 -87 -123 hhcurveto
            -125 -66 65 93 -12 hvcurveto
            -20 hlineto
            -104 13 73 -72 134 hhcurveto
            125 129 88 156 28 hvcurveto
            return
          </CharString>
          <CharString index="112">
            -171 -31 86 368 callgsubr
            return
          </CharString>
          <CharString index="113">
            -2 -14 -1 -15 -15 vvcurveto
            17 hlineto
            16 1 14 2 14 vhcurveto
            return
          </CharString>
          <CharString index="114">
            hlineto
            -64 -363 rlineto
            return
          </CharString>
          <CharString index="115">
            496 callsubr
            16 527 callsubr
            -15 -13 -11 -16 -3 hvcurveto
            498 callgsubr
            return
          </CharString>
          <CharString index="116">
            79 138 24 hvcurveto
            12 65 30 53 42 return
          </CharString>
          <CharString index="117">
            rmoveto
            -153 -84 89 167 417 callsubr
            10 hlineto
            125 2 100 52 27 152 573 callsubr
            -126 -26 -116 -81 -122 hhcurveto
            return
          </CharString>
          <CharString index="118">
            17 103 rrcurveto
            178 -635 rmoveto
            43 244 rlineto
            -17 hlineto
            -85 -15 -68 -67 -94 hhcurveto
            -93 -42 63 79 14 hvcurveto
            22 124 128 39 111 58 rrcurveto
            return
          </CharString>
          <CharString index="119">
            30 callgsubr
            17 hlineto
            127 724 rlineto
            return
          </CharString>
          <CharString index="120">
            4 callgsubr
            118 309 -93 callgsubr
            -692 -105 callsubr
            480 371 callgsubr
            -162 hlineto
            -83 -99 -26 -106 -19 hvcurveto
            -91 -16 72 -41 86 360 callgsubr
            return
          </CharString>
          <CharString index="121">
            -58 callgsubr
            70 54 87 hhcurveto
            123 hlineto
            -19 415 callgsubr
            return
          </CharString>
          <CharString index="122">
            hvcurveto
            -56 callgsubr
            return
          </CharString>
          <CharString index="123">
            rmoveto
            1 callsubr
            return
          </CharString>
          <CharString index="124">
            21 callsubr
            -1091 -37 callsubr
            return
          </CharString>
          <CharString index="125">
            -104 callsubr
            -47 -266 rlineto
            16 hlineto
            63 358 rlineto
            85 16 75 125 return
          </CharString>
          <CharString index="126">
            rmoveto
            -153 -77 122 167 417 callsubr
            3 hlineto
            128 101 40 133 23 -96 callsubr
            2 callgsubr
            return
          </CharString>
          <CharString index="127">
            107 704 rmoveto
            147 -409 371 callsubr
            20 hlineto
            52 295 291 409 215 callgsubr
            return
          </CharString>
          <CharString index="128">
            458 -94 callsubr
            return
          </CharString>
          <CharString index="129">
            404 callgsubr
            -103 -65 -120 hhcurveto
            -124 -102 80 179 32 hvcurveto
            179 32 130 80 560 callgsubr
            79 -65 -107 -2 hvcurveto
            20 hlineto
            111 2 -76 79 -140 317 callgsubr
            return
          </CharString>
          <CharString index="130">
            338 callsubr
            hintmask 0011111110000000
            -26 -148 86 -106 139 -15 553 callgsubr
            hintmask 1001111110000000
            75 callsubr
            hintmask 0101111110000000
            -145 170 rlineto
            125 -81 callgsubr
            76 hlineto
            29 167 rlineto
            endchar
          </CharString>
          <CharString index="131">
            750 0 16 -14 16 141 501 callsubr
            93 16 46 320 callgsubr
            59 17 409 494 callsubr
            hintmask 1011111111100000
            1134 hmoveto
            -75 callgsubr
            -1396 -105 callsubr
            745 216 callgsubr
            -37 hlineto
            54 -12 -51 55 -111 hhcurveto
            -143 -116 253 callsubr
            hintmask 0111111111100000
            -93 callsubr
            109 73 133 hhcurveto
            135 36 -84 -53 -10 hvcurveto
            -24 -136 rlineto
            hintmask 1011111111100000
            219 callgsubr
            return
          </CharString>
          <CharString index="132">
            127 callsubr
            -98 -77 -61 -94 -17 hvcurveto
            -91 -16 return
          </CharString>
          <CharString index="133">
            16 143 16 203 231 callsubr
            294 16 372 10 vstem
            717 hmoveto
            -75 callgsubr
            -979 -105 callsubr
            328 216 callgsubr
            -44 hlineto
            -32 -180 rlineto
            219 callgsubr
            return
          </CharString>
          <CharString index="134">
            112 19 96 89 133 hhcurveto
            29 hlineto
            74 callgsubr
            return
          </CharString>
          <CharString index="135">
            -1 -7 20 344 7 -7 19 317 18 hstemhm
            40 20 415 20 30 20 hintmask 10111100
            109 516 rmoveto
            20 hlineto
            129 39 105 48 99 hhcurveto
            hintmask 10111110
            115 51 -65 -91 -16 hvcurveto
            -99 -17 -83 -62 -176 hhcurveto
            -18 hlineto
            -4 -19 rlineto
            17 hlineto
            hintmask 10111100
            162 90 -60 -118 -21 hvcurveto
            -92 -16 -74 -74 -131 hhcurveto
            -128 -62 79 105 -1 hvcurveto
            -20 hlineto
            -129 75 -75 132 149 78 85 101 18 vhcurveto
            hintmask 11011100
            20 112 -71 61 -104 12 1 6 rcurveline
            137 11 54 82 13 74 rrcurveto
            hintmask 10111110
            98 17 -55 578 callsubr
            hintmask 10111100
            -136 -96 -76 -119 -34 hvcurveto
            endchar
          </CharString>
          <CharString index="136">
            166 callgsubr
            17 hlineto
            140 25 -85 85 -116 hhcurveto
            -112 -73 -67 -76 -38 hvcurveto
            50 283 rlineto
            413 -77 callsubr
            -971 -37 callsubr
            return
          </CharString>
          <CharString index="137">
            -105 callsubr
            162 hlineto
            -127 -724 rlineto
            return
          </CharString>
          <CharString index="138">
            38 -8 18 226 18 439 18 hstemhm
            73 20 -1 20 443 19 hintmask 11110100
            93 182 rmoveto
            -20 hlineto
            -113 -5 53 -77 124 hhcurveto
            186 90 148 225 40 hvcurveto
            178 31 -9 168 -218 hhcurveto
            -167 -81 -116 -115 -20 hvcurveto
            hintmask 11101100
            -150 -26 66 -94 149 hhcurveto
            117 109 65 106 36 hvcurveto
            -291 -38 -110 -106 -152 hhcurveto
            hintmask 11110100
            -110 -49 66 106 4 hvcurveto
            hintmask 11101100
            196 72 rmoveto
            -129 -69 77 149 26 hvcurveto
            134 24 98 79 123 hhcurveto
            167 42 -121 -113 -20 hvcurveto
            -141 -25 -132 -64 -105 hhcurveto
            endchar
          </CharString>
          <CharString index="139">
            374 hlineto
            -51 -294 rlineto
            75 callgsubr
            return
          </CharString>
          <CharString index="140">
            35 callgsubr
            -33 -91 -16 hvcurveto
            -14 -76 58 -41 40 -11 -92 -32 -60 -86 -16 -90 rrcurveto
            -116 -21 55 -108 149 hhcurveto
            122 81 81 64 517 callgsubr
            -49 97 110 20 hvcurveto
            108 20 87 98 126 hhcurveto
            85 48 -43 -43 18 hvcurveto
            -167 -136 rlineto
            23 hlineto
            163 133 rlineto
            52 -17 -54 53 -99 hhcurveto
            -20 -19 -2 -4 -18 hvcurveto
            -60 14 -45 38 12 67 rrcurveto
            82 15 74 27 77 hhcurveto
            192 hlineto
            endchar
          </CharString>
          <CharString index="141">
            rmoveto
            -26 callsubr
            return
          </CharString>
          <CharString index="142">
            rmoveto
            13 callgsubr
            return
          </CharString>
          <CharString index="143">
            -92 hhcurveto
            -88 -43 68 96 17 hvcurveto
            return
          </CharString>
          <CharString index="144">
            135 callgsubr
            374 hlineto
            371 callsubr
            127 callgsubr
            return
          </CharString>
          <CharString index="145">
            67 133 110 callgsubr
            return
          </CharString>
          <CharString index="146">
            -88 -496 -54 callgsubr
            return
          </CharString>
          <CharString index="147">
            164 21 -21 114 16 265 16 313 298 callgsubr
            95 18 370 callgsubr
            hintmask 11110111
            548 hmoveto
            113 callsubr
            -83 101 164 37 hvcurveto
            93 hlineto
            120 128 39 254 callsubr
            hintmask 11101111
            93 17 -53 75 -104 hhcurveto
            -124 -80 -94 -130 hvcurveto
            17 hlineto
            439 callgsubr
            43 555 callgsubr
            -130 -28 -100 hhcurveto
            -108 hlineto
            -3 -12 -3 -12 -2 -11 rrcurveto
            -157 -29 91 -105 163 hhcurveto
            return
          </CharString>
          <CharString index="148">
            rmoveto
            114 20 88 73 113 hhcurveto
            114 62 -73 -114 -20 hvcurveto
            return
          </CharString>
          <CharString index="149">
            -44 callgsubr
            161 hlineto
            32 178 rlineto
            return
          </CharString>
          <CharString index="150">
            215 callsubr
            -18 -106 77 -62 94 -11 -106 -53 -119 -44 -22 -125 rrcurveto
            -89 -16 51 -69 101 hhcurveto
            100 55 66 29 11 hvcurveto
            -30 -171 rlineto
            return
          </CharString>
          <CharString index="151">
            17 vstem
            -51 callgsubr
            return
          </CharString>
          <CharString index="152">
            88 callgsubr
            34 callgsubr
            return
          </CharString>
          <CharString index="153">
            481 hmoveto
            528 callgsubr
            -20 hlineto
            -51 -287 rlineto
            2 vlineto
            return
          </CharString>
          <CharString index="154">
            hlineto
            -19 87 callgsubr
            return
          </CharString>
          <CharString index="155">
            -41 callsubr
            339 -422 494 callgsubr
            137 9 115 96 25 138 rlinecurve
            56 callsubr
            -25 -138 84 -104 132 -9 395 callsubr
            hintmask 10111100
            575 callsubr
          </CharString>
          <CharString index="156" raw="1">
            f60ae3d6 d1af1f0b  
          </CharString>
          <CharString index="157">
            -105 callsubr
            333 hlineto
            -48 -270 157 callsubr
            -5 -25 rlineto
            -69 return
          </CharString>
          <CharString index="158">
            141 85 87 144 24 hvcurveto
            -17 hlineto
            -136 -23 -78 -79 -129 hhcurveto
            -147 -61 96 147 28 hvcurveto
            79 446 rlineto
            398 hlineto
            -26 -148 -24 -134 -54 -52 -116 8 rlinecurve
            -3 -16 127 -8 61 56 26 146 rlinecurve
            26 148 rlineto
            return
          </CharString>
          <CharString index="159">
            -26 83 -85 123 hhcurveto
            return
          </CharString>
          <CharString index="160">
            452 callgsubr
            91 81 48 64 33 hvcurveto
            -19 callsubr
          </CharString>
          <CharString index="161">
            120 hhcurveto
            110 73 77 120 20 hvcurveto
            3 1 4 1 4 vhcurveto
            -17 hlineto
            -2 -11 rlineto
            -109 -19 -67 -72 -100 hhcurveto
            -110 return
          </CharString>
          <CharString index="162">
            162 704 rmoveto
            -125 -704 rlineto
            20 hlineto
            357 callsubr
            return
          </CharString>
          <CharString index="163">
            46 callgsubr
            -750 -105 callsubr
            366 hlineto
            -29 -165 -143 -4 -121 -98 -25 -142 rlinecurve
            return
          </CharString>
          <CharString index="164">
            371 callgsubr
            -160 hlineto
            -84 -103 -27 -106 -18 hvcurveto
            return
          </CharString>
          <CharString index="165">
            hhcurveto
            80 61 37 57 37 hvcurveto
            -125 -17 61 -96 141 hhcurveto
            11 8 1 1 10 hvcurveto
            -44 callsubr
            -138 -50 96 124 22 541 callgsubr
            70 88 100 callsubr
            40 -96 -145 -27 188 callsubr
            return
          </CharString>
          <CharString index="166">
            rmoveto
            -64 callsubr
            return
          </CharString>
          <CharString index="167">
            -93 callgsubr
            -724 252 callsubr
            hintmask 00111100
            -25 -136 83 -99 129 -13 553 callgsubr
            hintmask 10011100
            75 callsubr
            hintmask 01011100
            -145 170 151 4 108 105 25 148 rlinecurve
            -17 hlineto
            -141 -24 -108 -100 -142 hhcurveto
            -139 -89 97 136 25 hvcurveto
            167 30 133 78 151 hhcurveto
            68 hlineto
            427 callgsubr
            endchar
          </CharString>
          <CharString index="168">
            68 callgsubr
            105 416 callgsubr
            hintmask 1100110111000000
            269 424 rmoveto
            -16 callsubr
            hintmask 1110010111000000
            406 callgsubr
            return
          </CharString>
          <CharString index="169">
            42 callsubr
            endchar
          </CharString>
          <CharString index="170">
            570 -93 callgsubr
            return
          </CharString>
          <CharString index="171">
            -29 -165 rlineto
            19 hlineto
            528 callgsubr
            -19 hlineto
            -29 -165 rlineto
            return
          </CharString>
          <CharString index="172">
            -434 734 rmoveto
            2 15 rlineto
            117 16 82 103 256 hhcurveto
            256 37 -104 -116 -22 hvcurveto
            -2 -9 rlineto
            -161 hlineto
            -3 -16 rlineto
            162 hlineto
            -128 -724 503 callsubr
            return
          </CharString>
          <CharString index="173">
            16 164 -14 callsubr
            return
          </CharString>
          <CharString index="174">
            -149 -27 -103 106 callsubr
            return
          </CharString>
          <CharString index="175" raw="1">
            9c037a1d 0b  
          </CharString>
          <CharString index="176">
            hlineto
            -29 -164 -116 -5 -60 -92 -24 -76 rlinecurve
            return
          </CharString>
          <CharString index="177">
            164 callgsubr
            129 callgsubr
            return
          </CharString>
          <CharString index="178">
            -80 101 164 36 hvcurveto
            94 hlineto
            120 128 40 146 25 hvcurveto
            return
          </CharString>
          <CharString index="179">
            16 140 161 callsubr
            return
          </CharString>
          <CharString index="180">
            hintmask 01011000
            68 540 rmoveto
            74 -540 rlineto
            15 hlineto
            hintmask 01101000
            286 504 107 -504 rlineto
            15 hlineto
            266 540 rlineto
            -22 hlineto
            hintmask 10011000
            -245 -499 -106 499 rlineto
            -17 hlineto
            -282 -499 -69 499 rlineto
            return
          </CharString>
          <CharString index="181">
            133 540 rmoveto
            -96 -540 rlineto
            20 hlineto
            528 callgsubr
            return
          </CharString>
          <CharString index="182">
            203 169 144 -169 rlineto
            21 hlineto
            return
          </CharString>
          <CharString index="183">
            -78 -131 -23 hvcurveto
            return
          </CharString>
          <CharString index="184">
            hlineto
            51 callgsubr
            return
          </CharString>
          <CharString index="185">
            rmoveto
            134 24 114 79 119 hhcurveto
            153 42 -117 -100 -18 hvcurveto
            -93 -16 -82 -121 -155 hhcurveto
            -123 -82 111 callsubr
            return
          </CharString>
          <CharString index="186">
            -48 -268 rlineto
            -121 577 15 callgsubr
            return
          </CharString>
          <CharString index="187">
            130 callsubr
            352 callgsubr
            -36 -205 rlineto
            return
          </CharString>
          <CharString index="188">
            17 hlineto
            -59 callgsubr
            return
          </CharString>
          <CharString index="189">
            hintmask 11011000
            117 callsubr
            return
          </CharString>
          <CharString index="190">
            -102 -18 -81 -76 -108 hhcurveto
            -92 -83 55 115 8 hvcurveto
            -16 hlineto
            -46 -262 rlineto
            17 hlineto
            35 203 rlineto
            -58 6 60 -69 111 hhcurveto
            113 90 78 510 callgsubr
            18 104 -50 68 -83 25 rrcurveto
            return
          </CharString>
          <CharString index="191">
            515 684 rmoveto
            4 20 rlineto
            -394 hlineto
            -4 -20 rlineto
            373 hlineto
            -503 -665 -4 -19 rlineto
            417 hlineto
            4 19 rlineto
            -395 hlineto
            return
          </CharString>
          <CharString index="192">
            rmoveto
            127 22 101 82 116 hhcurveto
            122 64 -86 -123 -22 hvcurveto
            -117 -21 -95 -85 -120 hhcurveto
            -116 -72 82 120 21 hvcurveto
            return
          </CharString>
          <CharString index="193">
            -227 hlineto
            48 269 rlineto
            433 103 callgsubr
            return
          </CharString>
          <CharString index="194">
            -18 -99 56 -51 66 -12 rrcurveto
            -2 vlineto
            return
          </CharString>
          <CharString index="195">
            hhcurveto
            -32 -105 callsubr
            32 hlineto
            return
          </CharString>
          <CharString index="196">
            160 16 319 129 callsubr
            hintmask 10111100
            433 336 rmoveto
            -56 callgsubr
            313 hlineto
            3 15 rlineto
            -379 405 callsubr
            -347 -2 rmoveto
            hintmask 11011100
            96 17 80 -98 callgsubr
            hintmask 10111100
            -31 callgsubr
            return
          </CharString>
          <CharString index="197">
            -98 callsubr
            433 293 28 callgsubr
            179 hmoveto
            3 16 rlineto
            return
          </CharString>
          <CharString index="198">
            -19 -109 54 -45 72 -8 -1 -2 rcurveline
            -84 -7 -83 -56 -17 -96 rrcurveto
            -121 -21 83 -62 137 hhcurveto
            return
          </CharString>
          <CharString index="199">
            rmoveto
            -84 178 rlineto
            -18 hlineto
            83 -178 rlineto
            return
          </CharString>
          <CharString index="200">
            142 21 -21 239 callsubr
            vstem
            815 -52 callsubr
            -788 -105 callsubr
            610 526 callgsubr
            -103 -21 -103 -94 217 callgsubr
            20 95 350 callsubr
            242 hlineto
            -95 -29 -67 -75 -17 -97 rrcurveto
            -131 -23 89 -78 116 hhcurveto
            return
          </CharString>
          <CharString index="201">
            56 hlineto
            9 53 rlineto
            -38 hlineto
            5 29 rlineto
            29 6 12 16 35 hhcurveto
            4 20 rlineto
            -40 -30 -15 -63 -11 hvcurveto
            -3 -18 -3 -22 -2 -29 rrcurveto
            return
          </CharString>
          <CharString index="202">
            16 248 16 215 16 hstem
            99 17 vstem
            284 -20 rmoveto
            392 335 5 25 -422 -360 rlineto
            489 744 -93 callgsubr
            -719 -105 callsubr
            679 -231 -93 callgsubr
            -282 247 callgsubr
            18 100 rlineto
            -17 hlineto
            -18 -99 rlineto
            261 callsubr
            return
          </CharString>
          <CharString index="203">
            172 callsubr
            759 44 callsubr
            return
          </CharString>
          <CharString index="204">
            rlineto
            185 hlineto
            245 150 130 222 39 hvcurveto
            222 40 -104 130 -245 hhcurveto
            529 callsubr
            rmoveto
            -165 hlineto
            return
          </CharString>
          <CharString index="205">
            -56 -317 rlineto
            19 hlineto
            56 315 rlineto
            167 29 -86 70 -118 hhcurveto
            -101 -93 -49 -104 -45 hvcurveto
            return
          </CharString>
          <CharString index="206">
            rmoveto
            -3 -18 rlineto
            309 162 callsubr
            return
          </CharString>
          <CharString index="207">
            116 hhcurveto
            111 return
          </CharString>
          <CharString index="208">
            -62 -351 -30 callgsubr
          </CharString>
          <CharString index="209">
            210 152 rmoveto
            -63 callsubr
            return
          </CharString>
          <CharString index="210">
            -18 -103 50 -77 95 -1 return
          </CharString>
          <CharString index="211">
            -9 539 callsubr
            520 20 vstem
            4 11 rmoveto
            -2 -11 rlineto
            467 345 callgsubr
            -429 hlineto
            184 99 275 208 33 190 rrcurveto
            146 26 -91 50 -100 hhcurveto
            -134 -98 -88 -143 -36 hvcurveto
            20 hlineto
            119 30 79 94 136 hhcurveto
            139 25 -87 -91 -16 hvcurveto
            -29 -164 -209 -181 -274 -159 rrcurveto
            endchar
          </CharString>
          <CharString index="212">
            -77 -82 -77 -32 543 callgsubr
            -6 -51 82 -127 hhcurveto
            -125 -108 -89 -136 -24 hvcurveto
            return
          </CharString>
          <CharString index="213">
            -22 callsubr
            563 callsubr
            -1 -8 rrcurveto
            return
          </CharString>
          <CharString index="214">
            5 callsubr
            131 return
          </CharString>
          <CharString index="215">
            122 72 92 444 callsubr
            return
          </CharString>
          <CharString index="216">
            140 104 79 111 38 hvcurveto
            return
          </CharString>
          <CharString index="217">
            120 21 -37 72 -96 hhcurveto
            return
          </CharString>
          <CharString index="218">
            79 139 24 hvcurveto
            return
          </CharString>
          <CharString index="219">
            hlineto
            -49 -281 rlineto
            75 -12 -54 66 -114 hhcurveto
            -120 -112 -85 -140 -25 hvcurveto
            -147 -26 83 -85 123 hhcurveto
            111 77 65 74 38 hvcurveto
            -38 callsubr
            return
          </CharString>
          <CharString index="220">
            -7 callsubr
            -70 -397 rlineto
            -124 -22 -118 -89 -124 hhcurveto
            -160 return
          </CharString>
          <CharString index="221">
            hlineto
            -26 -151 rlineto
            -52 hlineto
            -161 -141 -80 -180 -32 hvcurveto
            return
          </CharString>
          <CharString index="222">
            -147 -26 100 -86 127 hhcurveto
            35 31 6 10 27 hvcurveto
            -239 -182 rlineto
            24 hlineto
            200 623 rmoveto
            220 callgsubr
            -19 hvcurveto
            -8 -49 -27 -56 -46 -44 -268 312 rcurveline
            38 47 59 21 61 hhcurveto
            -75 -441 rmoveto
            -122 -89 549 callgsubr
            268 -312 rcurveline
            -35 -41 -55 -25 -69 hhcurveto
            return
          </CharString>
          <CharString index="223">
            487 18 rmoveto
            -136 -80 76 134 4 hvcurveto
            4 25 -1 25 -4 25 rrcurveto
            16 -101 callsubr
            -412 423 139 callgsubr
            endchar
          </CharString>
          <CharString index="224">
            159 callsubr
            hlineto
            return
          </CharString>
          <CharString index="225">
            10 -14 306 callsubr
            return
          </CharString>
          <CharString index="226">
            74 79 85 15 hvcurveto
            47 275 -421 -110 41 235 rrcurveto
            86 15 82 50 99 hhcurveto
            return
          </CharString>
          <CharString index="227">
            94 16 84 52 79 hhcurveto
            81 64 -53 -92 -16 hvcurveto
            -15 -82 -59 -45 -69 -38 return
          </CharString>
          <CharString index="228">
            rmoveto
            21 113 rlineto
            return
          </CharString>
          <CharString index="229">
            -131 -23 52 -100 137 hhcurveto
            105 75 62 91 43 hvcurveto
            -42 -240 rlineto
            -181 103 rmoveto
            -129 -45 99 114 23 hvcurveto
            1 7 2 310 callsubr
            111 82 23 88 16 hvcurveto
            108 19 -99 16 -89 hhcurveto
            -263 hlineto
            27 151 rlineto
            650 hlineto
            -65 -370 rlineto
            -138 -24 -82 -113 -137 hhcurveto
            endchar
          </CharString>
          <CharString index="230">
            -54 callgsubr
            endchar
          </CharString>
          <CharString index="231">
            347 callgsubr
            -23 58 276 callsubr
            355 callgsubr
            return
          </CharString>
          <CharString index="232">
            12 22 7 24 4 24 rrcurveto
            88 15 -30 69 -85 hhcurveto
            -88 -44 -68 -55 -18 hvcurveto
            -2 hlineto
            55 3 -21 68 -81 hhcurveto
            -88 -60 -66 -91 -16 hvcurveto
            -93 -16 39 -74 104 hhcurveto
            8 11 1 1 5 hvcurveto
            3 15 rlineto
            -1 -5 -10 -1 -7 hhcurveto
            -95 -36 67 85 15 hvcurveto
            81 14 51 61 80 hhcurveto
            75 30 -66 -102 -20 hvcurveto
            -1 -5 rlineto
            return
          </CharString>
          <CharString index="233">
            0 16 282 226 callsubr
            162 16 hstemhm
            473 17 hintmask 10111100
            return
          </CharString>
          <CharString index="234">
            31 callgsubr
            -122 hlineto
            return
          </CharString>
          <CharString index="235">
            304 callsubr
            21 113 rcurveline
            return
          </CharString>
          <CharString index="236">
            16 -15 15 213 111 callgsubr
            return
          </CharString>
          <CharString index="237">
            -105 callsubr
            443 101 callgsubr
            return
          </CharString>
          <CharString index="238">
            -50 -283 rlineto
            return
          </CharString>
          <CharString index="239">
            -6 21 -1 25 4 24 rrcurveto
            83 15 54 43 229 callsubr
            -52 -63 -71 -12 hvcurveto
            -2 -10 -1 -9 -11 vvcurveto
            207 -76 -46 9 -102 -9 callgsubr
            return
          </CharString>
          <CharString index="240">
            -6 21 -1 25 4 24 rrcurveto
            83 15 50 43 64 hhcurveto
            54 36 -38 -59 -14 381 callsubr
            -49 -63 -71 -12 hvcurveto
            -2 -11 -1 -10 -10 vvcurveto
            208 -76 -46 9 -102 -9 callgsubr
            return
          </CharString>
          <CharString index="241">
            210 152 155 callgsubr
            return
          </CharString>
          <CharString index="242">
            -20 -109 55 -45 71 508 callsubr
            return
          </CharString>
          <CharString index="243">
            hlineto
            161 callgsubr
            return
          </CharString>
          <CharString index="244">
            290 callsubr
            -130 -22 -90 437 callsubr
            -33 -194 rlineto
            -128 -22 54 -86 54 callsubr
            -45 73 callgsubr
            30 179 rlineto
            return
          </CharString>
          <CharString index="245">
            369 335 callgsubr
            111 476 callgsubr
            57 551 callgsubr
            return
          </CharString>
          <CharString index="246">
            -61 555 callsubr
            4 -33 96 -112 hhcurveto
            -125 -79 146 callgsubr
            -133 -23 54 473 callgsubr
            11 1 1 12 hvcurveto
            3 17 rlineto
            -1 -12 -10 -1 -10 hhcurveto
            -138 -50 96 124 22 541 callgsubr
            74 88 116 hhcurveto
            107 355 callgsubr
            return
          </CharString>
          <CharString index="247">
            21 275 callgsubr
            return
          </CharString>
          <CharString index="248">
            -107 8 81 -61 110 -39 callsubr
            -905 322 callsubr
            919 hlineto
            -50 -284 rlineto
            389 callsubr
            return
          </CharString>
          <CharString index="249">
            rmoveto
            -161 -28 -113 -98 -148 hhcurveto
            -141 -85 103 156 28 hvcurveto
            156 28 121 103 141 hhcurveto
            148 77 -98 -161 -28 hvcurveto
            endchar
          </CharString>
          <CharString index="250">
            207 callgsubr
            1201 708 -93 callgsubr
            -1433 -55 callgsubr
            -23 78 467 callgsubr
            80 70 33 59 45 hvcurveto
            return
          </CharString>
          <CharString index="251">
            213 callsubr
            106 77 76 callsubr
            return
          </CharString>
          <CharString index="252">
            rmoveto
            14 2 -8 10 -14 525 callsubr
            -3 hvcurveto
            -14 -3 9 203 callsubr
            return
          </CharString>
          <CharString index="253">
            83 15 69 69 142 hhcurveto
            54 -77 callsubr
            -54 hlineto
            -126 return
          </CharString>
          <CharString index="254">
            -105 rlineto
            -110 return
          </CharString>
          <CharString index="255">
            241 callgsubr
            hintmask 10110111
            243 callsubr
            hintmask 10101111
            24 callgsubr
            return
          </CharString>
          <CharString index="256">
            -11 callgsubr
            162 hlineto
            return
          </CharString>
          <CharString index="257">
            hhcurveto
            -44 hlineto
            -32 -180 rlineto
            return
          </CharString>
          <CharString index="258">
            873 255 callgsubr
            78 172 28 hvcurveto
            484 hlineto
            7 18 2 10 5 26 rrcurveto
            113 20 -62 119 -165 hhcurveto
            return
          </CharString>
          <CharString index="259">
            -125 -70 86 127 22 hvcurveto
            147 26 127 38 callsubr
            return
          </CharString>
          <CharString index="260">
            -122 -62 -95 -78 -25 hvcurveto
            -77 callgsubr
            return
          </CharString>
          <CharString index="261">
            rmoveto
            -80 -455 rlineto
            -280 hlineto
            383 474 rmoveto
            324 hlineto
            249 callgsubr
            -558 -704 rlineto
            23 hlineto
            154 194 rlineto
            290 hlineto
            -34 -194 rlineto
            344 345 callgsubr
            -324 hlineto
            308 callgsubr
            294 162 callsubr
            -294 hlineto
            endchar
          </CharString>
          <CharString index="262">
            312 callgsubr
            -149 175 -18 callgsubr
            return
          </CharString>
          <CharString index="263">
            84 15 -52 79 -105 hhcurveto
            -99 -76 -70 -86 -15 hvcurveto
            -16 -88 38 -71 85 -54 18 -11 rcurveline
            -246 -166 rlineto
            -3 22 vlineto
            239 159 return
          </CharString>
          <CharString index="264">
            rlineto
            -61 -11 -35 -64 -87 hhcurveto
            -83 -17 65 57 11 hvcurveto
            6 31 rlineto
            -17 hlineto
            return
          </CharString>
          <CharString index="265">
            vstem
            172 callgsubr
            return
          </CharString>
          <CharString index="266">
            -17 callgsubr
            -162 return
          </CharString>
          <CharString index="267">
            -153 -82 99 167 31 hvcurveto
            return
          </CharString>
          <CharString index="268">
            16 hstemhm
            137 callgsubr
            return
          </CharString>
          <CharString index="269">
            hlineto
            3 18 rlineto
            return
          </CharString>
          <CharString index="270">
            724 rmoveto
            593 225 callsubr
            70 -9 -51 59 -102 hhcurveto
            -108 -70 -66 -77 -37 hvcurveto
            return
          </CharString>
          <CharString index="271">
            -47 -266 rlineto
            return
          </CharString>
          <CharString index="272">
            rmoveto
            20 hlineto
            41 16 35 27 55 hhcurveto
            52 28 -31 -45 -8 hvcurveto
            -49 -9 -41 -28 -52 hhcurveto
            -64 hlineto
            -4 -18 rlineto
            61 hlineto
            53 36 -27 -50 -9 hvcurveto
            -45 -8 -37 -29 -58 hhcurveto
            -47 -35 17 62 4 hvcurveto
            -20 hlineto
            -66 -4 34 -31 65 hhcurveto
            75 43 47 45 8 hvcurveto
            return
          </CharString>
          <CharString index="273">
            -162 vlineto
            488 callgsubr
          </CharString>
          <CharString index="274">
            rmoveto
            -334 hlineto
            245 439 rlineto
            endchar
          </CharString>
          <CharString index="275">
            hstemhm
            66 194 callsubr
            return
          </CharString>
          <CharString index="276">
            hintmask 10111010
            95 582 rmoveto
            -74 -13 44 -55 73 hhcurveto
            73 64 55 74 13 hvcurveto
            74 13 -44 55 -73 hhcurveto
            -73 -64 -55 -74 -13 hvcurveto
            147 111 rmoveto
            63 35 -47 -64 -11 hvcurveto
            -64 -11 -53 -47 -63 hhcurveto
            -63 -35 47 64 11 hvcurveto
            64 11 53 47 63 hhcurveto
            return
          </CharString>
          <CharString index="277">
            132 225 callgsubr
            -42 54 101 17 hvcurveto
            19 102 rlineto
            441 7 callsubr
            -134 -25 -127 -95 -137 hhcurveto
            531 592 -93 callgsubr
            return
          </CharString>
          <CharString index="278">
            577 callsubr
            -881 297 callsubr
            149 hlineto
            -24 -135 rlineto
            return
          </CharString>
          <CharString index="279">
            16 321 419 callsubr
            110 17 return
          </CharString>
          <CharString index="280">
            107 88 callgsubr
            return
          </CharString>
          <CharString index="281">
            -2 279 callsubr
            rrcurveto
            return
          </CharString>
          <CharString index="282">
            87 callsubr
            -66 -6 -71 -47 -17 return
          </CharString>
          <CharString index="283">
            -149 -27 -103 221 callgsubr
            return
          </CharString>
          <CharString index="284">
            -21 -19 -3 -6 -18 hvcurveto
            -711 297 callsubr
            677 183 callsubr
            return
          </CharString>
          <CharString index="285">
            89 callgsubr
            551 callsubr
            -92 -111 -19 hvcurveto
            return
          </CharString>
          <CharString index="286">
            -73 108 hhcurveto
            106 return
          </CharString>
          <CharString index="287">
            23 131 -73 87 -116 7 26 148 rcurveline
            326 -77 callsubr
            -1100 -105 callsubr
            757 hlineto
            -26 -148 rlineto
            -125 105 callsubr
            return
          </CharString>
          <CharString index="288">
            -13 -37 -23 -37 -32 -31 548 callsubr
            29 27 -4 -8 21 hvcurveto
            2 16 rlineto
            9 -23 -27 3 -28 -23 callsubr
            106 84 57 79 46 hvcurveto
            return
          </CharString>
          <CharString index="289">
            854 172 rmoveto
            3 1 4 1 4 vhcurveto
            -17 hlineto
            -2 -11 rlineto
            -109 -20 -74 -72 -100 hhcurveto
            -117 -41 84 113 21 hvcurveto
            26 145 rlineto
            135 hlineto
            131 109 71 130 23 hvcurveto
            126 22 -63 73 -114 hhcurveto
            return
          </CharString>
          <CharString index="290">
            396 callgsubr
            87 callsubr
            return
          </CharString>
          <CharString index="291">
            450 337 rmoveto
            -114 -74 -69 -77 -37 hvcurveto
            50 286 rlineto
            return
          </CharString>
          <CharString index="292">
            96 callsubr
            688 477 -93 callgsubr
            return
          </CharString>
          <CharString index="293">
            hmoveto
            168 callgsubr
            75 112 141 hhcurveto
            106 77 76 callsubr
            return
          </CharString>
          <CharString index="294">
            232 callsubr
            hhcurveto
            208 180 119 204 36 hvcurveto
            return
          </CharString>
          <CharString index="295">
            hvcurveto
            -1 -8 rlineto
            return
          </CharString>
          <CharString index="296">
            -97 -17 -69 -67 36 callsubr
            30 170 rlineto
            -17 hlineto
            -30 -169 268 callsubr
            73 75 19 107 21 122 rcurveline
            208 hlineto
            5 5 0 6 hhcurveto
            174 callsubr
            return
          </CharString>
          <CharString index="297">
            89 callgsubr
            131 16 83 110 106 hhcurveto
            104 34 -79 -115 -18 hvcurveto
            -114 -18 55 -77 102 hhcurveto
            106 61 75 106 19 hvcurveto
            27 153 rlineto
            34 callgsubr
            endchar
          </CharString>
          <CharString index="298">
            -7 -140 rmoveto
            -105 callgsubr
            return
          </CharString>
          <CharString index="299">
            hvcurveto
            -243 -185 rlineto
            23 hlineto
            return
          </CharString>
          <CharString index="300">
            17 271 12 -12 17 292 return
          </CharString>
          <CharString index="301">
            17 336 17 return
          </CharString>
          <CharString index="302">
            571 -221 rmoveto
            -118 -80 76 133 19 hvcurveto
            4 1 4 1 4 vhcurveto
            1 3 0 3 3 vvcurveto
            127 29 110 74 113 -81 callsubr
            endchar
          </CharString>
          <CharString index="303">
            1 4 1 310 callsubr
            3 hlineto
            137 98 40 141 24 hvcurveto
            15 89 rlineto
            440 callsubr
            return
          </CharString>
          <CharString index="304">
            1 4 1 310 callsubr
            3 hlineto
            128 103 342 callsubr
            440 callsubr
            return
          </CharString>
          <CharString index="305">
            175 callgsubr
            -127 -22 -101 -30 -109 hhcurveto
            -260 hlineto
            -24 -139 rlineto
            return
          </CharString>
          <CharString index="306">
            hlineto
            -38 -213 rlineto
            -352 77 callsubr
            return
          </CharString>
          <CharString index="307">
            247 135 callgsubr
            return
          </CharString>
          <CharString index="308">
            24 138 -68 63 -81 4 29 163 rcurveline
            return
          </CharString>
          <CharString index="309">
            25 21 -21 194 18 439 32 return
          </CharString>
          <CharString index="310">
            -10 15 -54 callsubr
            return
          </CharString>
          <CharString index="311">
            -59 rmoveto
            -51 hlineto
            -7 -38 rlineto
            return
          </CharString>
          <CharString index="312">
            -1 12 13 -1 12 hhcurveto
            return
          </CharString>
          <CharString index="313">
            -3 15 16 -2 18 hhcurveto
            return
          </CharString>
          <CharString index="314">
            rmoveto
            14 3 -9 118 callsubr
            -2 7 451 callgsubr
          </CharString>
          <CharString index="315">
            -42 -241 rlineto
            17 hlineto
            56 321 rlineto
            -15 hlineto
            -128 -22 -117 -48 -80 hhcurveto
            hintmask 1010111010100000
            213 callgsubr
          </CharString>
          <CharString index="316">
            153 callsubr
            -133 return
          </CharString>
          <CharString index="317">
            2 16 rlineto
            -179 hlineto
            -1 -8 -65 -372 rlineto
            281 callsubr
            return
          </CharString>
          <CharString index="318">
            140 346 rmoveto
            114 20 88 73 113 hhcurveto
            111 62 -69 -109 -16 hvcurveto
            -4 -1 -4 -1 -4 vhcurveto
            -1 -3 0 -3 -3 vvcurveto
            -105 -24 -86 -69 -110 131 callgsubr
            return
          </CharString>
          <CharString index="319">
            -89 callgsubr
            endchar
          </CharString>
          <CharString index="320">
            76 callgsubr
            63 359 rlineto
            193 callgsubr
            return
          </CharString>
          <CharString index="321">
            72 callsubr
            346 return
          </CharString>
          <CharString index="322">
            101 18 -73 60 -91 hhcurveto
            -87 -91 -56 -106 -18 hvcurveto
            return
          </CharString>
          <CharString index="323">
            hlineto
            131 callsubr
            80 -14 -62 72 -122 hhcurveto
            return
          </CharString>
          <CharString index="324">
            hlineto
            174 callsubr
            return
          </CharString>
          <CharString index="325">
            hhcurveto
            121 81 67 76 39 hvcurveto
            return
          </CharString>
          <CharString index="326">
            38 -10 18 13 543 callsubr
            return
          </CharString>
          <CharString index="327">
            33 190 rlineto
            return
          </CharString>
          <CharString index="328">
            724 rmoveto
            -72 -410 rlineto
            -417 hlineto
            41 callgsubr
            115 -724 rmoveto
            108 callgsubr
            return
          </CharString>
          <CharString index="329">
            323 callgsubr
            135 hhcurveto
            105 67 -76 -129 -21 hvcurveto
            -14 -21 -10 -25 -5 -27 rrcurveto
            return
          </CharString>
          <CharString index="330">
            52 callgsubr
            358 rlineto
            return
          </CharString>
          <CharString index="331">
            rmoveto
            -4 -18 rlineto
            205 hlineto
            437 callgsubr
            121 686 rlineto
            205 345 callgsubr
            return
          </CharString>
          <CharString index="332">
            103 callgsubr
            -12 hlineto
            return
          </CharString>
          <CharString index="333">
            150 callgsubr
            232 16 return
          </CharString>
          <CharString index="334">
            94 456 callsubr
            195 -277 rmoveto
            -156 -28 -121 -103 -141 hhcurveto
            -148 -77 98 161 28 hvcurveto
            161 28 113 98 148 385 callsubr
            -103 -156 -28 hvcurveto
            return
          </CharString>
          <CharString index="335">
            737 rmoveto
            266 -89 -45 11 -111 -9 callgsubr
            106 45 -6 -115 105 hvcurveto
            return
          </CharString>
          <CharString index="336">
            70 hhcurveto
            60 32 -40 -57 -6 hvcurveto
            16 hlineto
            67 8 -37 46 -70 hhcurveto
            -89 return
          </CharString>
          <CharString index="337">
            hvcurveto
            146 callsubr
            return
          </CharString>
          <CharString index="338">
            357 callgsubr
            hstem
            68 17 return
          </CharString>
          <CharString index="339">
            rrcurveto
            -141 -25 123 -77 174 return
          </CharString>
          <CharString index="340">
            21 -21 127 16 return
          </CharString>
          <CharString index="341">
            -147 -26 83 -85 123 hhcurveto
            111 77 65 74 38 hvcurveto
            183 callgsubr
            return
          </CharString>
          <CharString index="342">
            113 6 rlinecurve
            76 4 64 -47 -12 -69 rrcurveto
            -4 -1 -4 -1 -4 vhcurveto
            -55 callsubr
            return
          </CharString>
          <CharString index="343">
            294 callgsubr
            131 740 rlineto
            endchar
          </CharString>
          <CharString index="344">
            rmoveto
            -73 callgsubr
            161 29 119 73 163 hhcurveto
            return
          </CharString>
          <CharString index="345">
            560 callsubr
            119 66 -73 -144 -26 hvcurveto
            return
          </CharString>
          <CharString index="346">
            115 16 394 16 183 16 hstem
            135 17 return
          </CharString>
          <CharString index="347">
            253 callgsubr
            -167 hlineto
            return
          </CharString>
          <CharString index="348">
            -7 495 callgsubr
            return
          </CharString>
          <CharString index="349">
            18 325 443 callgsubr
            return
          </CharString>
          <CharString index="350">
            -55 -315 rlineto
            -376 hlineto
            return
          </CharString>
          <CharString index="351">
            -460 -2 54 -33 -21 hstemhm
            -11 52 hintmask 01100000
            10 -2 496 callgsubr
            hintmask 10100000
            16 527 callsubr
            -15 -13 -11 -16 -3 hvcurveto
            hintmask 01100000
            498 callgsubr
            return
          </CharString>
          <CharString index="352">
            -93 callsubr
            119 73 163 hhcurveto
            146 391 callgsubr
            return
          </CharString>
          <CharString index="353">
            31 21 503 callgsubr
            427 334 callgsubr
            79 17 vstem
            return
          </CharString>
          <CharString index="354">
            -90 -8 -87 -58 -19 -108 232 callsubr
            return
          </CharString>
          <CharString index="355">
            -174 -31 92 -103 150 hhcurveto
            109 callsubr
            return
          </CharString>
          <CharString index="356">
            -99 callsubr
            550 hlineto
            return
          </CharString>
          <CharString index="357">
            220 callgsubr
            -18 hvcurveto
            -2 -8 -10 -47 -26 -52 -43 -41 rlinecurve
            -268 311 rlineto
            return
          </CharString>
          <CharString index="358">
            -105 callsubr
            477 114 callgsubr
            return
          </CharString>
          <CharString index="359">
            -105 callsubr
            459 114 callsubr
            return
          </CharString>
          <CharString index="360">
            -77 -173 -31 hvcurveto
            return
          </CharString>
          <CharString index="361">
            147 26 hvcurveto
            return
          </CharString>
          <CharString index="362" raw="1">
            f7ac1df7 380a0b  
          </CharString>
          <CharString index="363">
            -116 -21 73 -68 107 hhcurveto
            98 68 53 61 34 hvcurveto
            -32 -181 rlineto
            16 hlineto
            83 465 60 36 37 59 12 70 rlinecurve
            -17 hlineto
            509 callsubr
            -79 -152 hhcurveto
            return
          </CharString>
          <CharString index="364">
            rmoveto
            -158 hlineto
            61 346 rlineto
            158 hlineto
            151 43 -65 -109 -20 hvcurveto
            -104 -18 -66 -68 -151 hhcurveto
            255 172 rmoveto
            117 21 -51 77 -160 hhcurveto
            return
          </CharString>
          <CharString index="365">
            rmoveto
            -79 -49 55 83 15 hvcurveto
            1 8 2 7 3 8 1 3 1 4 2 4 rrcurveto
            65 25 62 40 75 507 callgsubr
            return
          </CharString>
          <CharString index="366">
            453 callgsubr
            45 253 204 -253 rlineto
            28 hlineto
            -221 272 313 268 rlineto
            -29 hlineto
            -288 -247 79 447 rlineto
            endchar
          </CharString>
          <CharString index="367">
            73 12 73 67 86 hhcurveto
            97 45 -71 -75 -14 hvcurveto
            -14 -83 -52 -52 -78 -52 -31 -21 rcurveline
            return
          </CharString>
          <CharString index="368">
            -106 -19 53 -75 99 hhcurveto
            99 76 75 106 18 hvcurveto
            14 83 rlineto
            return
          </CharString>
          <CharString index="369">
            214 callsubr
            18 21 17 return
          </CharString>
          <CharString index="370">
            88 callsubr
            106 40 -10 -201 92 hvcurveto
            return
          </CharString>
          <CharString index="371">
            55 -12 -51 58 -111 hhcurveto
            -153 -107 253 callsubr
            return
          </CharString>
          <CharString index="372">
            rmoveto
            -111 -68 -65 -75 -35 hvcurveto
            49 280 rlineto
            return
          </CharString>
          <CharString index="373">
            -68 36 callsubr
            return
          </CharString>
          <CharString index="374">
            82 14 77 27 75 hhcurveto
            192 hlineto
            return
          </CharString>
          <CharString index="375">
            103 callsubr
            rlinecurve
            107 -1 return
          </CharString>
          <CharString index="376">
            15 -15 16 314 16 hstemhm
            return
          </CharString>
          <CharString index="377">
            89 callgsubr
            -11 callsubr
            107 37 -83 -105 -12 hvcurveto
            -144 52 callsubr
            111 77 65 74 38 hvcurveto
            164 callsubr
            return
          </CharString>
          <CharString index="378">
            78 13 67 62 83 hhcurveto
            91 44 -60 -100 -28 hvcurveto
            17 hlineto
            106 29 -49 70 -101 hhcurveto
            -96 -72 -68 -87 -15 hvcurveto
            87 callsubr
            -66 -6 -71 return
          </CharString>
          <CharString index="379">
            473 callgsubr
            8 1 1 10 hvcurveto
            return
          </CharString>
          <CharString index="380">
            rrcurveto
            5 callsubr
            return
          </CharString>
          <CharString index="381">
            hhcurveto
            131 88 75 70 36 hvcurveto
            return
          </CharString>
          <CharString index="382">
            rmoveto
            115 103 68 121 22 hvcurveto
            -20 hlineto
            -103 -19 -84 -68 -114 hhcurveto
            -110 -67 69 110 19 hvcurveto
            174 31 133 25 118 hhcurveto
            16 hlineto
            return
          </CharString>
          <CharString index="383">
            149 callgsubr
            -138 -50 96 124 22 541 callgsubr
            70 88 100 callsubr
            return
          </CharString>
          <CharString index="384">
            -350 21 -21 686 18 hstem
            73 145 vstem
            194 686 rmoveto
            437 callgsubr
            357 callsubr
            -126 hlineto
            -4 -18 rlineto
            endchar
          </CharString>
          <CharString index="385">
            rmoveto
            366 hlineto
            -44 -247 rlineto
            68 -21 -60 39 -83 hhcurveto
            -103 -69 -67 -77 -36 hvcurveto
            return
          </CharString>
          <CharString index="386">
            -6 420 callsubr
            return
          </CharString>
          <CharString index="387">
            49 287 callsubr
            return
          </CharString>
          <CharString index="388">
            273 callgsubr
            -79 53 102 17 hvcurveto
            75 13 64 62 -36 callsubr
            return
          </CharString>
          <CharString index="389">
            301 callgsubr
            endchar
          </CharString>
          <CharString index="390">
            125 16 431 334 callgsubr
            79 17 442 return
          </CharString>
          <CharString index="391">
            17 56 17 253 16 return
          </CharString>
          <CharString index="392">
            16 136 16 return
          </CharString>
          <CharString index="393">
            -105 callsubr
            487 558 callgsubr
            -175 hlineto
            -89 -80 -33 -91 -16 hvcurveto
            -14 -78 58 -38 38 -12 -90 -32 -59 -77 -15 -89 rrcurveto
            -110 return
          </CharString>
          <CharString index="394">
            rmoveto
            79 callgsubr
            return
          </CharString>
          <CharString index="395">
            -85 -7 -83 -56 -17 -96 rrcurveto
            -121 -21 87 -62 133 hhcurveto
            120 105 64 96 52 hvcurveto
            -49 -276 123 callsubr
          </CharString>
          <CharString index="396">
            -109 -20 87 -62 112 hhcurveto
            114 101 63 96 51 hvcurveto
            -48 -275 rlineto
            return
          </CharString>
          <CharString index="397">
            438 callsubr
            -23 -133 rlineto
            return
          </CharString>
          <CharString index="398">
            118 667 319 -667 rlineto
            20 hlineto
            return
          </CharString>
          <CharString index="399">
            140 callsubr
            -7 7 return
          </CharString>
          <CharString index="400">
            -105 callsubr
            377 hlineto
            return
          </CharString>
          <CharString index="401">
            -103 442 callsubr
            return
          </CharString>
          <CharString index="402">
            16 159 16 return
          </CharString>
          <CharString index="403">
            hhcurveto
            -127 105 callsubr
            394 callgsubr
            return
          </CharString>
          <CharString index="404">
            hlineto
            -2 -16 rlineto
            return
          </CharString>
          <CharString index="405">
            rlineto
            -149 -26 62 -89 129 356 callsubr
            63 callgsubr
            return
          </CharString>
          <CharString index="406">
            -117 rmoveto
            -98 -68 60 106 21 hvcurveto
            100 20 84 74 134 hhcurveto
            60 51 11 21 41 hvcurveto
            -35 -200 rlineto
            -75 -13 -70 -97 -127 hhcurveto
            return
          </CharString>
          <CharString index="407">
            hhcurveto
            115 68 -68 -89 12 hvcurveto
            538 callgsubr
            23 vlineto
            405 345 -61 -345 123 callsubr
          </CharString>
          <CharString index="408">
            -79 175 140 175 rlineto
            -27 hlineto
            -138 -175 77 -175 rlineto
            return
          </CharString>
          <CharString index="409">
            89 callgsubr
            149 19 83 92 113 hhcurveto
            return
          </CharString>
          <CharString index="410">
            -64 callgsubr
            342 return
          </CharString>
          <CharString index="411">
            hlineto
            -21 callgsubr
            return
          </CharString>
          <CharString index="412">
            -145 -26 93 -107 143 hhcurveto
            return
          </CharString>
          <CharString index="413">
            hhcurveto
            -15 -47 callgsubr
            return
          </CharString>
          <CharString index="414">
            hlineto
            -126 -42 54 101 return
          </CharString>
          <CharString index="415">
            rmoveto
            -124 -51 78 117 18 hvcurveto
            2 8 1 9 3 9 rrcurveto
            111 82 23 88 15 hvcurveto
            106 18 -100 18 -87 hhcurveto
            -357 hlineto
            return
          </CharString>
          <CharString index="416">
            -161 196 callgsubr
          </CharString>
          <CharString index="417">
            7 2 8 rrcurveto
            return
          </CharString>
          <CharString index="418">
            275 247 345 callsubr
            return
          </CharString>
          <CharString index="419">
            -173 rlinecurve
            578 callgsubr
            -84 410 callgsubr
            -75 77 150 28 hvcurveto
            29 154 136 return
          </CharString>
          <CharString index="420">
            -17 hlineto
            -108 -16 -64 -84 -106 hhcurveto
            -113 -44 73 callgsubr
            return
          </CharString>
          <CharString index="421">
            -48 callsubr
            -105 -99 -65 -110 -40 hvcurveto
            -326 hlineto
            return
          </CharString>
          <CharString index="422">
            419 callsubr
            137 callgsubr
            return
          </CharString>
          <CharString index="423">
            hhcurveto
            -12 hlineto
            -3 -12 -3 -12 -2 -12 rrcurveto
            return
          </CharString>
          <CharString index="424">
            16 162 16 hstem
            53 477 callgsubr
            return
          </CharString>
          <CharString index="425">
            -386 21 543 callsubr
            return
          </CharString>
          <CharString index="426">
            31 hlineto
            -1 -7 rlineto
            return
          </CharString>
          <CharString index="427">
            21 428 callsubr
            return
          </CharString>
          <CharString index="428">
            -123 -99 -39 -84 -58 hvcurveto
            114 12 -68 71 -118 hhcurveto
            -123 -95 -78 -125 -22 hvcurveto
            -17 -98 40 -71 81 -24 rrcurveto
            return
          </CharString>
          <CharString index="429">
            16 34 callsubr
            return
          </CharString>
          <CharString index="430">
            rmoveto
            -351 128 callsubr
            417 hlineto
            -22 -125 rlineto
            -148 -27 -96 -42 -109 hhcurveto
            return
          </CharString>
          <CharString index="431">
            -217 -156 1091 hstem
            -45 491 vstem
            424 935 rmoveto
            -469 -1091 rlineto
            20 hlineto
            471 1091 rlineto
            endchar
          </CharString>
          <CharString index="432">
            hlineto
            -3 -9 callsubr
            return
          </CharString>
          <CharString index="433">
            -79 -38 -87 -74 -102 hhcurveto
            return
          </CharString>
          <CharString index="434">
            89 16 264 335 callgsubr
            5 16 90 476 callgsubr
            57 17 72 193 callsubr
            16 return
          </CharString>
          <CharString index="435">
            1 4 0 5 1 5 rrcurveto
            3 hlineto
            128 114 52 156 22 hvcurveto
            17 117 rlineto
            250 7 callsubr
            return
          </CharString>
          <CharString index="436">
            624 hmoveto
            361 callgsubr
            return
          </CharString>
          <CharString index="437">
            -110 -20 90 -61 109 hhcurveto
            131 103 84 130 44 hvcurveto
            return
          </CharString>
          <CharString index="438">
            hhcurveto
            98 63 577 callgsubr
            hvcurveto
            -119 -21 -104 -66 -118 hhcurveto
            return
          </CharString>
          <CharString index="439">
            16 145 100 callgsubr
            333 17 482 17 return
          </CharString>
          <CharString index="440">
            17 vstem
            504 callgsubr
            return
          </CharString>
          <CharString index="441">
            -1 73 76 19 106 return
          </CharString>
          <CharString index="442">
            -82 132 hhcurveto
            return
          </CharString>
          <CharString index="443">
            50 22 17 -16 16 -14 14 316 396 callsubr
            hstemhm
            342 callgsubr
            hintmask 0101111110000000
            return
          </CharString>
          <CharString index="444">
            16 8 16 140 -14 callsubr
            336 189 callgsubr
            return
          </CharString>
          <CharString index="445">
            -93 callgsubr
            -698 251 callsubr
            return
          </CharString>
          <CharString index="446">
            1 4 1 310 callsubr
            3 hlineto
            128 96 52 154 28 hvcurveto
            22 125 rlineto
            251 hlineto
            -69 -396 rlineto
            return
          </CharString>
          <CharString index="447">
            305 callsubr
            endchar
          </CharString>
          <CharString index="448">
            578 callgsubr
            -92 159 hhcurveto
            return
          </CharString>
          <CharString index="449">
            419 callgsubr
            15 89 rlineto
            return
          </CharString>
          <CharString index="450">
            hlineto
            -60 -339 rlineto
            -276 hlineto
            return
          </CharString>
          <CharString index="451">
            -105 callsubr
            endchar
          </CharString>
          <CharString index="452">
            64 callgsubr
            -51 -289 rlineto
            -102 -18 -77 -86 -112 hhcurveto
            return
          </CharString>
          <CharString index="453">
            16 14 -21 127 16 206 501 callsubr
            140 130 callgsubr
            61 18 return
          </CharString>
          <CharString index="454">
            455 callgsubr
            -11 -10 -14 -3 hvcurveto
            -14 -2 8 310 callgsubr
          </CharString>
          <CharString index="455">
            -148 -26 90 -86 131 218 callsubr
            return
          </CharString>
          <CharString index="456">
            219 callgsubr
            116 86 77 87 45 hvcurveto
            return
          </CharString>
          <CharString index="457">
            415 callsubr
            -357 -105 callsubr
            return
          </CharString>
          <CharString index="458">
            298 callgsubr
            84 307 callgsubr
            return
          </CharString>
          <CharString index="459">
            16 -15 15 300 538 callsubr
            return
          </CharString>
          <CharString index="460">
            -105 callsubr
            950 101 callgsubr
            return
          </CharString>
          <CharString index="461">
            16 -15 15 213 298 callgsubr
            return
          </CharString>
          <CharString index="462">
            291 16 232 16 162 16 return
          </CharString>
          <CharString index="463">
            500 callgsubr
            23 hvcurveto
            return
          </CharString>
          <CharString index="464">
            125 704 rlineto
            return
          </CharString>
          <CharString index="465">
            -87 -142 -25 hvcurveto
            return
          </CharString>
          <CharString index="466">
            117 233 callgsubr
            292 16 -8 8 284 298 callgsubr
            134 17 281 17 hintmask 11101011
            return
          </CharString>
          <CharString index="467">
            17 120 16 287 525 callgsubr
            75 17 339 231 callgsubr
            16 return
          </CharString>
          <CharString index="468">
            12 68 39 46 50 18 rrcurveto
            1 hlineto
            5 15 16 3 16 31 callgsubr
            return
          </CharString>
          <CharString index="469">
            8 callsubr
            endchar
          </CharString>
          <CharString index="470">
            -158 71 callsubr
            93 16 -52 75 -101 hhcurveto
            return
          </CharString>
          <CharString index="471">
            -1 98 callgsubr
            return
          </CharString>
          <CharString index="472">
            157 callgsubr
            endchar
          </CharString>
          <CharString index="473">
            -21 83 48 -4 16 88 16 321 16 140 16 hstemhm
            return
          </CharString>
          <CharString index="474">
            -67 -49 27 68 12 hvcurveto
            73 13 61 24 57 hhcurveto
            44 hlineto
            return
          </CharString>
          <CharString index="475">
            16 3 hvcurveto
            16 3 return
          </CharString>
          <CharString index="476">
            21 502 callgsubr
            return
          </CharString>
          <CharString index="477">
            21 476 callsubr
            return
          </CharString>
          <CharString index="478">
            -52 -295 rlineto
            return
          </CharString>
          <CharString index="479">
            rmoveto
            -90 -44 68 96 17 hvcurveto
            45 259 rlineto
            292 hlineto
            -45 -259 rlineto
            206 callgsubr
            return
          </CharString>
          <CharString index="480">
            rlineto
            7 7 0 7 hhcurveto
            88 90 32 153 27 hvcurveto
            28 161 rlineto
            455 hlineto
            131 callsubr
            return
          </CharString>
          <CharString index="481">
            146 callsubr
            -43 54 101 18 hvcurveto
            18 102 rlineto
            return
          </CharString>
          <CharString index="482">
            rrcurveto
            388 callsubr
            return
          </CharString>
          <CharString index="483">
            137 24 111 77 120 hhcurveto
            114 64 -67 -87 12 hvcurveto
            -435 -371 rlineto
            -2 23 vlineto
            return
          </CharString>
          <CharString index="484">
            -430 704 -20 hstem
            73 120 vstem
            73 512 267 callgsubr
            endchar
          </CharString>
          <CharString index="485">
            120 16 441 558 callsubr
            return
          </CharString>
          <CharString index="486">
            99 560 rlineto
            -19 530 callgsubr
            rlineto
            return
          </CharString>
          <CharString index="487">
            hhcurveto
            -106 -52 -83 -96 -18 hvcurveto
            -10 -52 rlineto
            return
          </CharString>
          <CharString index="488">
            hvcurveto
            16 hlineto
            69 15 -40 44 -64 hhcurveto
            -82 return
          </CharString>
          <CharString index="489">
            rlineto
            -20 hlineto
            -125 -704 rlineto
            20 hlineto
            return
          </CharString>
          <CharString index="490">
            53 499 callsubr
            return
          </CharString>
          <CharString index="491">
            -19 -18 -3 -6 -16 hvcurveto
            return
          </CharString>
          <CharString index="492">
            hhcurveto
            141 85 return
          </CharString>
          <CharString index="493">
            hhcurveto
            -133 -118 -93 -151 -27 hvcurveto
            17 hlineto
            142 25 109 86 126 hhcurveto
            114 return
          </CharString>
          <CharString index="494">
            -23 -22 566 callgsubr
            708 hlineto
            -67 -37 -37 -73 -89 vvcurveto
            17 hlineto
            return
          </CharString>
          <CharString index="495">
            -72 callgsubr
            287 hlineto
            return
          </CharString>
          <CharString index="496">
            80 -12 -59 68 -125 hhcurveto
            -105 -99 -59 -101 -45 hvcurveto
            return
          </CharString>
          <CharString index="497">
            hlineto
            -127 -724 -11 callgsubr
            return
          </CharString>
          <CharString index="498">
            133 hhcurveto
            29 -77 callsubr
            return
          </CharString>
          <CharString index="499">
            -135 -23 -98 -30 -118 hhcurveto
            return
          </CharString>
          <CharString index="500">
            hlineto
            -58 -24 -42 -50 -12 -66 rrcurveto
            return
          </CharString>
          <CharString index="501">
            18 174 17 268 17 return
          </CharString>
          <CharString index="502">
            -207 474 callgsubr
            return
          </CharString>
          <CharString index="503">
            16 186 530 callsubr
            return
          </CharString>
          <CharString index="504">
            hvcurveto
            78 437 rlineto
            return
          </CharString>
          <CharString index="505">
            -16 -3 hvcurveto
            -16 -3 return
          </CharString>
          <CharString index="506">
            -33 -6 -15 -21 -32 hhcurveto
            -3 -18 rlineto
            36 33 20 64 11 hvcurveto
            2 10 1 11 1 12 rrcurveto
            return
          </CharString>
          <CharString index="507">
            -93 callgsubr
            -5 -16 -26 -5 -25 hhcurveto
            -73 -65 51 91 15 hvcurveto
            75 12 64 54 94 hhcurveto
            return
          </CharString>
          <CharString index="508">
            8 46 -23 29 -38 11 rrcurveto
            2 vlineto
            47 12 28 32 7 40 rrcurveto
            58 10 -39 38 -60 hhcurveto
            return
          </CharString>
          <CharString index="509">
            0 509 -498 48 -38 513 callgsubr
            74 49 return
          </CharString>
          <CharString index="510">
            162 callsubr
            endchar
          </CharString>
          <CharString index="511">
            906 724 171 callsubr
            return
          </CharString>
          <CharString index="512">
            77 callsubr
            -40 callsubr
            return
          </CharString>
          <CharString index="513">
            109 callgsubr
            -140 -346 179 callgsubr
            return
          </CharString>
          <CharString index="514">
            114 62 -73 -114 -20 hvcurveto
            -2 -11 -3 -11 -3 -10 -3 -8 -3 -7 -3 -8 rrcurveto
            return
          </CharString>
          <CharString index="515">
            hlineto
            -57 -325 rlineto
            -106 -20 53 -75 102 56 callgsubr
            return
          </CharString>
          <CharString index="516">
            430 callgsubr
            endchar
          </CharString>
          <CharString index="517">
            6 434 callgsubr
            return
          </CharString>
          <CharString index="518">
            -130 -742 rlineto
            17 hlineto
            130 742 rlineto
            return
          </CharString>
          <CharString index="519">
            -129 -116 -51 -113 -58 hvcurveto
            -346 hlineto
            return
          </CharString>
          <CharString index="520">
            154 467 callsubr
            return
          </CharString>
          <CharString index="521" raw="1">
            fb35220a f736060b  
          </CharString>
          <CharString index="522">
            89 391 callsubr
            return
          </CharString>
          <CharString index="523">
            hlineto
            -79 -68 29 86 16 hvcurveto
            99 17 return
          </CharString>
          <CharString index="524">
            33 hvcurveto
            1 4 1 310 callsubr
            return
          </CharString>
          <CharString index="525">
            -254 20 127 18 return
          </CharString>
          <CharString index="526">
            16 140 16 hstem
            return
          </CharString>
          <CharString index="527">
            -1 -7 -1 -6 return
          </CharString>
          <CharString index="528">
            78 123 hhcurveto
            return
          </CharString>
          <CharString index="529">
            145 155 1 117 53 29 163 rlinecurve
            117 21 -75 80 -121 hhcurveto
            return
          </CharString>
          <CharString index="530">
            745 138 rmoveto
            -148 -74 90 121 11 hvcurveto
            1 5 1 7 1 8 rrcurveto
            return
          </CharString>
          <CharString index="531">
            -7 callsubr
            -1 -8 -65 -372 rlineto
            return
          </CharString>
          <CharString index="532">
            16 109 16 19 16 202 16 155 16 7 279 callgsubr
            68 17 return
          </CharString>
          <CharString index="533">
            112 20 hvcurveto
            return
          </CharString>
          <CharString index="534">
            hvcurveto
            -3 -17 rlineto
            return
          </CharString>
          <CharString index="535">
            -21 704 -20 return
          </CharString>
          <CharString index="536">
            298 rlineto
            494 -77 callsubr
            -1064 -105 callsubr
            553 hlineto
            -46 return
          </CharString>
          <CharString index="537">
            -116 1 84 -66 114 -39 callsubr
            return
          </CharString>
          <CharString index="538">
            151 17 199 16 184 16 141 16 hstem
            74 17 409 15 vstem
            return
          </CharString>
          <CharString index="539">
            -71 -61 -84 -14 hvcurveto
            -99 -17 73 -59 81 hhcurveto
            24 29 5 5 14 hvcurveto
            endchar
          </CharString>
          <CharString index="540">
            335 callsubr
            116 85 79 86 42 hvcurveto
            return
          </CharString>
          <CharString index="541">
            16 -7 7 -7 111 callgsubr
            return
          </CharString>
          <CharString index="542">
            369 callsubr
            277 16 279 16 return
          </CharString>
          <CharString index="543">
            -50 -283 -11 callgsubr
            return
          </CharString>
          <CharString index="544">
            -62 -120 hhcurveto
            -110 hlineto
            return
          </CharString>
          <CharString index="545">
            -105 callsubr
            442 hlineto
            return
          </CharString>
          <CharString index="546">
            hlineto
            540 callgsubr
            return
          </CharString>
          <CharString index="547">
            251 7 callsubr
            return
          </CharString>
          <CharString index="548">
            117 88 77 84 31 hvcurveto
            return
          </CharString>
          <CharString index="549">
            -174 -31 hvcurveto
            return
          </CharString>
          <CharString index="550">
            18 518 18 return
          </CharString>
          <CharString index="551">
            116 18 hvcurveto
            return
          </CharString>
          <CharString index="552">
            152 16 310 513 callsubr
            return
          </CharString>
          <CharString index="553">
            -123 -21 52 -94 141 hhcurveto
            103 74 61 90 43 hvcurveto
            -42 -238 rlineto
            return
          </CharString>
          <CharString index="554">
            16 -12 16 136 16 hstemhm
            78 316 callgsubr
            return
          </CharString>
          <CharString index="555">
            569 callgsubr
            172 30 -89 105 -155 hhcurveto
            return
          </CharString>
          <CharString index="556">
            -106 9 74 -66 136 hhcurveto
            134 93 78 70 35 hvcurveto
            359 callgsubr
            return
          </CharString>
          <CharString index="557">
            166 29 238 callsubr
            endchar
          </CharString>
          <CharString index="558">
            304 callsubr
            rrcurveto
            endchar
          </CharString>
          <CharString index="559">
            hlineto
            -65 -369 rlineto
            -143 -25 return
          </CharString>
          <CharString index="560">
            rlineto
            441 callgsubr
            return
          </CharString>
          <CharString index="561">
            hlineto
            -10 -21 -8 -24 -4 -25 rrcurveto
            return
          </CharString>
          <CharString index="562">
            117 20 -54 81 -160 hhcurveto
            return
          </CharString>
          <CharString index="563">
            -12 -73 578 callsubr
            return
          </CharString>
          <CharString index="564">
            16 -7 7 -7 16 hstemhm
            return
          </CharString>
          <CharString index="565">
            63 361 rlineto
            return
          </CharString>
          <CharString index="566">
            rlineto
            136 hlineto
            return
          </CharString>
          <CharString index="567">
            18 682 18 return
          </CharString>
          <CharString index="568">
            11 -119 17 413 16 222 295 callsubr
            hstem
            47 17 vstem
            return
          </CharString>
          <CharString index="569">
            -8 18 11 -21 232 18 203 18 222 18 -7 -20 hstemhm
            -7 return
          </CharString>
          <CharString index="570">
            2 16 107 16 -14 16 344 16 65 16 -12 279 callgsubr
            return
          </CharString>
          <CharString index="571">
            hvcurveto
            1 1 2 2 vvcurveto
            1 4 1 5 1 5 rrcurveto
            3 hlineto
            128 return
          </CharString>
          <CharString index="572">
            129 callsubr
            137 18 21 16 return
          </CharString>
          <CharString index="573">
            hhcurveto
            95 43 -68 -84 -15 hvcurveto
            -142 -25 -130 -28 -100 hhcurveto
            -96 hlineto
            return
          </CharString>
          <CharString index="574">
            rmoveto
            -155 -79 123 158 30 hvcurveto
            return
          </CharString>
          <CharString index="575">
            16 218 15 -15 16 85 16 -15 15 return
          </CharString>
          <CharString index="576">
            16 355 callsubr
            return
          </CharString>
          <CharString index="577">
            216 -8 18 331 18 333 18 return
          </CharString>
          <CharString index="578">
            -45 -255 rlineto
            -4 -21 -2 -20 -19 vvcurveto
            return
          </CharString>
          <CharString index="579">
            -21 159 440 callgsubr
            return
          </CharString>
          <CharString index="580">
            hvcurveto
            50 284 rlineto
            return
          </CharString>
          <CharString index="581">
            16 hstemhm
            110 17 return
          </CharString>
          <CharString index="582">
            562 callgsubr
            hstem
            return
          </CharString>
          <CharString index="583">
            -21 120 16 return
          </CharString>
          <CharString index="584">
            -21 125 16 return
          </CharString>
          <CharString index="585">
            -36 -163 -29 427 callsubr
            17 hlineto
            3 17 rlineto
            173 31 return
          </CharString>
          <CharString index="586">
            38 hvcurveto
            284 callgsubr
            return
          </CharString>
          <CharString index="587">
            517 callsubr
            -1 -2 rcurveline
            return
          </CharString>
          <CharString index="588">
            55 hmoveto
            -75 callgsubr
            -162 hlineto
            return
          </CharString>
          <CharString index="589">
            505 callgsubr
            endchar
          </CharString>
          <CharString index="590">
            -47 -264 rlineto
            endchar
          </CharString>
          <CharString index="591">
            hlineto
            165 callgsubr
            -48 callsubr
            -99 -93 -57 return
          </CharString>
          <CharString index="592">
            70 42 36 50 9 hvcurveto
            9 54 -37 30 -84 -5 15 82 rcurveline
            return
          </CharString>
          <CharString index="593">
            -148 -25 89 -86 126 385 callsubr
            94 91 34 hvcurveto
            return
          </CharString>
          <CharString index="594">
            rmoveto
            -121 -248 rlineto
            20 hlineto
            127 248 rlineto
            endchar
          </CharString>
          <CharString index="595">
            229 16 189 16 133 16 return
          </CharString>
          <CharString index="596">
            392 16 221 295 callsubr
            return
          </CharString>
          <CharString index="597">
            -238 21 -21 530 22 -12 -20 return
          </CharString>
          <CharString index="598">
            rlineto
            -20 hlineto
            -96 -540 rlineto
            return
          </CharString>
          <CharString index="599">
            -73 -233 -21 794 -20 return
          </CharString>
          <CharString index="600">
            61 389 rmoveto
            -3 -18 rlineto
            return
          </CharString>
          <CharString index="601">
            17 294 541 callsubr
            return
          </CharString>
          <CharString index="602">
            -169 0 18 504 18 return
          </CharString>
          <CharString index="603">
            15 13 11 16 3 hvcurveto
            return
          </CharString>
          <CharString index="604">
            -21 534 18 -12 -20 return
          </CharString>
          <CharString index="605">
            -136 rlineto
            -114 hlineto
            return
          </CharString>
          <CharString index="606">
            -7 18 693 -20 return
          </CharString>
          <CharString index="607">
            hlineto
            -38 -213 rlineto
            return
          </CharString>
          <CharString index="608">
            16 203 16 return
          </CharString>
          <CharString index="609">
            -386 21 -21 return
          </CharString>
          <CharString index="610">
            rlineto
            512 callsubr
            return
          </CharString>
          <CharString index="611">
            89 callgsubr
            -11 callsubr
            87 return
          </CharString>
          <CharString index="612">
            740 -45 callgsubr
            return
          </CharString>
          <CharString index="613">
            rmoveto
            18 104 rlineto
            168 217 callsubr
            return
          </CharString>
          <CharString index="614">
            559 460 callgsubr
            261 18 250 18 -7 -20 return
          </CharString>
          <CharString index="615">
            -8 rrcurveto
            -2 vlineto
            return
          </CharString>
          <CharString index="616">
            -112 -20 -88 return
          </CharString>
          <CharString index="617">
            161 callsubr
            374 18 -9 9 -9 return
          </CharString>
          <CharString index="618">
            72 31 callgsubr
            return
          </CharString>
          <CharString index="619">
            17 hlineto
            108 callgsubr
            return
          </CharString>
          <CharString index="620">
            16 131 100 callgsubr
            334 17 return
          </CharString>
          <CharString index="621">
            265 callgsubr
            vstem
            return
          </CharString>
          <CharString index="622">
            -91 -16 55 -63 91 hhcurveto
            92 65 62 127 23 hvcurveto
            return
          </CharString>
          <CharString index="623">
            -23 -22 564 callsubr
            -60 14 -45 38 12 67 rrcurveto
            return
          </CharString>
          <CharString index="624">
            hlineto
            -67 -69 -31 -82 -15 hvcurveto
            -10 -56 27 -34 47 -12 return
          </CharString>
          <CharString index="625">
            -65 -36 -38 -73 -90 vvcurveto
            17 hlineto
            return
          </CharString>
          <CharString index="626">
            vstem
            493 callsubr
            return
          </CharString>
          <CharString index="627">
            hlineto
            -47 -269 rlineto
            -123 hlineto
            return
          </CharString>
          <CharString index="628">
            16 477 420 callgsubr
            return
          </CharString>
          <CharString index="629">
            358 callsubr
            -148 -26 return
          </CharString>
          <CharString index="630">
            19 16 347 16 326 16 return
          </CharString>
          <CharString index="631">
            21 -21 115 16 return
          </CharString>
          <CharString index="632">
            hhcurveto
            -15 -11 -10 -14 return
          </CharString>
          <CharString index="633">
            16 221 16 hstem
            return
          </CharString>
          <CharString index="634">
            3 -9 11 -15 hhcurveto
            return
          </CharString>
          <CharString index="635">
            -89 132 hhcurveto
            return
          </CharString>
          <CharString index="636">
            -121 -686 return
          </CharString>
          <CharString index="637">
            16 151 16 return
          </CharString>
          <CharString index="638">
            15 -15 16 162 279 callgsubr
            66 18 return
          </CharString>
          <CharString index="639">
            2 16 213 16 240 526 callsubr
            return
          </CharString>
          <CharString index="640">
            103 192 -168 285 callsubr
            -8 17 hstemhm
            return
          </CharString>
          <CharString index="641">
            284 callsubr
            131 421 callgsubr
            return
          </CharString>
          <CharString index="642">
            -12 283 18 159 18 hstem
            42 519 vstem
            return
          </CharString>
          <CharString index="643">
            -1 rcurveline
            -53 -299 rlineto
            endchar
          </CharString>
          <CharString index="644">
            336 17 159 16 return
          </CharString>
          <CharString index="645">
            16 -6 16 hstemhm
            53 17 return
          </CharString>
          <CharString index="646">
            0 18 675 18 hstem
            return
          </CharString>
          <CharString index="647">
            -163 hlineto
            2 9 rlineto
            return
          </CharString>
          <CharString index="648">
            16 372 10 return
          </CharString>
          <CharString index="649">
            -51 -9 35 -23 return
          </CharString>
          <CharString index="650">
            -21 540 -20 return
          </CharString>
          <CharString index="651">
            17 348 17 20 17 300 16 63 17 return
          </CharString>
          <CharString index="652">
            16 17 16 hstemhm
            -449 16 631 12 -12 return
          </CharString>
          <CharString index="653">
            -63 -71 -13 hvcurveto
            -2 -15 -1 -15 1 -15 rrcurveto
            return
          </CharString>
          <CharString index="654">
            67 hhcurveto
            161 hlineto
            3 16 24 133 rlineto
            return
          </CharString>
          <CharString index="655">
            -268 312 rcurveline
            188 callgsubr
            return
          </CharString>
          <CharString index="656">
            21 -21 273 397 callgsubr
            return
          </CharString>
          <CharString index="657">
            285 16 423 16 hstem
            113 17 vstem
            return
          </CharString>
          <CharString index="658">
            -11 callsubr
            111 37 return
          </CharString>
          <CharString index="659">
            233 callgsubr
            6 16 return
          </CharString>
          <CharString index="660">
            564 callgsubr
            410 18 return
          </CharString>
          <CharString index="661">
            457 callsubr
            66 return
          </CharString>
          <CharString index="662">
            -95 -78 -25 543 callgsubr
            return
          </CharString>
          <CharString index="663">
            rlineto
            20 hlineto
            63 352 rlineto
            return
          </CharString>
          <CharString index="664">
            16 -15 15 -15 16 return
          </CharString>
          <CharString index="665">
            321 callgsubr
            hstem
            return
          </CharString>
          <CharString index="666">
            -95 callsubr
            34 hlineto
            return
          </CharString>
          <CharString index="667">
            103 421 callsubr
            return
          </CharString>
          <CharString index="668">
            360 577 rmoveto
            return
          </CharString>
          <CharString index="669">
            hvcurveto
            3 18 rmoveto
            return
          </CharString>
          <CharString index="670">
            -1 -8 -2 -8 return
          </CharString>
          <CharString index="671">
            -3 -4 -20 hvcurveto
            return
          </CharString>
          <CharString index="672">
            -386 -86 864 hstem
            22 173 vstem
            return
          </CharString>
          <CharString index="673">
            232 callgsubr
            hstem
            return
          </CharString>
          <CharString index="674">
            30 11 34 6 36 19 118 -42 95 return
          </CharString>
          <CharString index="675">
            -45 -255 -4 -21 -2 -20 -1 -19 rlinecurve
            return
          </CharString>
          <CharString index="676">
            hhcurveto
            -130 -119 -81 -149 -26 hvcurveto
            return
          </CharString>
          <CharString index="677">
            611 241 callgsubr
            return
          </CharString>
          <CharString index="678">
            hlineto
            -147 -128 -72 -156 -27 hvcurveto
            return
          </CharString>
          <CharString index="679">
            318 callgsubr
            hstem
            67 21 return
          </CharString>
          <CharString index="680">
            15 89 rcurveline
            440 callsubr
            return
          </CharString>
          <CharString index="681">
            16 179 callgsubr
            return
          </CharString>
          <CharString index="682">
            203 169 rlineto
            endchar
          </CharString>
          <CharString index="683">
            16 hstem
            63 23 return
          </CharString>
          <CharString index="684">
            rmoveto
            2 16 rlineto
            return
          </CharString>
          <CharString index="685">
            76 -129 hhcurveto
            return
          </CharString>
        <CharString name=".notdef">
          -76 0 50 600 50 hstem
          0 50 400 50 vstem
          0 vmoveto
          500 700 -500 hlineto
          250 -305 rmoveto
          -170 255 rlineto
          340 hlineto
          -140 -300 rmoveto
          170 255 rlineto
          -510 vlineto
          -370 -45 rmoveto
          170 255 170 -255 rlineto
          -370 555 rmoveto
          170 -255 -170 -255 rlineto
          endchar
        </CharString>
        <CharString name="A">
          202 callsubr
          hstem
          -18 541 vstem
          -4 callgsubr
          -4 18 167 callsubr
        </CharString>
        <CharString name="AE">
          448 callgsubr
          513 667 154 callsubr
        </CharString>
        <CharString name="Aacute">
          202 callsubr
          66 -20 hstem
          -18 541 vstem
          -4 callgsubr
          28 689 -45 callgsubr
          -28 -647 167 callsubr
        </CharString>
        <CharString name="Abreve">
          202 callsubr
          76 18 hstem
          287 21 vstem
          -4 callgsubr
          62 669 -66 callgsubr
          -66 -651 167 callsubr
        </CharString>
        <CharString name="Acircumflex">
          202 callsubr
          hstem
          -18 541 vstem
          -4 callgsubr
          50 569 -1 callgsubr
          55 -632 167 callsubr
        </CharString>
        <CharString name="Adieresis">
          202 callsubr
          hstemhm
          -18 541 -224 58 76 58 hintmask 11110000
          -4 callgsubr
          hintmask 11101100
          -138 576 -85 callsubr
          -558 vmoveto
          -334 hlineto
          245 439 rlineto
          endchar
        </CharString>
        <CharString name="Agrave">
          202 callsubr
          66 -20 hstem
          -18 541 vstem
          -4 callgsubr
          -159 689 72 callgsubr
          -8 -537 167 callsubr
        </CharString>
        <CharString name="Amacron">
          202 callsubr
          119 18 hstem
          -18 570 vstem
          -4 callgsubr
          -218 626 99 callsubr
          -95 -608 167 callsubr
        </CharString>
        <CharString name="Aogonek">
          25 -190 19 192 -21 194 18 439 32 hstem
          341 20 vstem
          384 683 rmoveto
          -20 hlineto
          -382 -683 rlineto
          23 hlineto
          108 194 rlineto
          348 hlineto
          37 -185 -53 -22 -67 -28 -30 -37 -7 -38 rlinecurve
          542 callsubr
          51 hhcurveto
          19 23 4 8 22 hvcurveto
          4 20 rlineto
          -8 -23 -23 -5 -20 hhcurveto
          -39 -27 17 39 7 hvcurveto
          5 29 23 29 57 24 77 33 rcurveline
          -66 212 167 callsubr
        </CharString>
        <CharString name="Aring">
          202 callsubr
          75 18 144 18 hstem
          -18 541 vstem
          -4 callgsubr
          12 654 rmoveto
          -45 -8 -35 -27 -40 hhcurveto
          -40 -25 27 45 8 hvcurveto
          45 8 34 27 40 hhcurveto
          40 26 -27 -45 -8 hvcurveto
          -160 hmoveto
          -56 -10 35 -34 49 hhcurveto
          49 47 34 56 10 hvcurveto
          56 10 -35 34 -49 hhcurveto
          -49 -47 -34 -56 -10 hvcurveto
          144 -636 167 callsubr
        </CharString>
        <CharString name="Atilde">
          202 callsubr
          62 18 32 18 hstem
          -18 548 vstem
          -4 callgsubr
          -172 553 -86 callgsubr
          168 -535 167 callsubr
        </CharString>
        <CharString name="B">
          -16 0 20 336 20 -10 10 308 20 hstemhm
          479 20 24 20 hintmask 11011000
          476 188 rmoveto
          -104 -19 -86 -64 -128 hhcurveto
          -182 hlineto
          59 336 rlineto
          180 hlineto
          128 66 -66 -102 -18 hvcurveto
          hintmask 11011100
          44 344 rmoveto
          -95 -17 -72 -61 -119 hhcurveto
          -188 hlineto
          54 308 rlineto
          182 hlineto
          132 44 -64 -88 -16 hvcurveto
          -24 -344 rmoveto
          hintmask 10111000
          16 92 -53 70 -79 16 70 15 73 51 17 100 rrcurveto
          hintmask 11011100
          96 17 -46 76 -147 hhcurveto
          -202 hlineto
          -125 -704 rlineto
          202 hlineto
          152 86 84 104 19 hvcurveto
          endchar
        </CharString>
        <CharString name="C">
          193 -7 460 callsubr
          hstem
          67 21 -29 callgsubr
          endchar
        </CharString>
        <CharString name="CR">
          -286 endchar
        </CharString>
        <CharString name="Cacute">
          193 -7 460 callsubr
          38 -20 hstem
          67 21 -29 callgsubr
          525 532 -45 callgsubr
          endchar
        </CharString>
        <CharString name="Ccaron">
          193 -7 460 callsubr
          hstem
          67 21 -29 callgsubr
          564 510 -16 callgsubr
        </CharString>
        <CharString name="Ccedilla">
          193 418 callsubr
          82 18 -17 17 682 18 hstemhm
          67 21 364 20 hintmask 11101110
          74 351 rmoveto
          -210 -37 111 -148 191 5 5 0 6 hhcurveto
          -18 -100 rlineto
          45 callgsubr
          rrcurveto
          hintmask 11011110
          15 83 150 11 107 82 66 120 rlinecurve
          -20 hlineto
          hintmask 11101110
          -112 -61 -115 -84 -160 hhcurveto
          -170 -114 129 211 37 hvcurveto
          213 38 160 129 170 hhcurveto
          160 85 -84 -113 21 hvcurveto
          20 hlineto
          130 -25 -89 85 -169 hhcurveto
          -191 -163 -148 -212 -38 hvcurveto
          endchar
        </CharString>
        <CharString name="Cdotaccent">
          193 -7 460 callsubr
          37 60 hstem
          67 21 382 60 -29 callgsubr
          421 397 -28 callsubr
        </CharString>
        <CharString name="D">
          112 callgsubr
          endchar
        </CharString>
        <CharString name="Dcaron">
          112 callgsubr
          341 843 -16 callgsubr
        </CharString>
        <CharString name="Dcroat">
          58 callgsubr
        </CharString>
        <CharString name="E">
          268 callgsubr
          hstem
          37 469 vstem
          -65 callgsubr
          endchar
        </CharString>
        <CharString name="Eacute">
          268 callgsubr
          -18 63 0 -20 hstemhm
          37 469 hintmask 11101100
          -65 callgsubr
          243 197 rmoveto
          hintmask 11010100
          -211 -134 rlineto
          hintmask 11101100
          -3 -20 210 130 rlineto
          endchar
        </CharString>
        <CharString name="Ebreve">
          268 callgsubr
          55 18 hstem
          219 21 vstem
          -65 callgsubr
          277 177 -66 callgsubr
          endchar
        </CharString>
        <CharString name="Ecaron">
          268 callgsubr
          hstem
          37 469 vstem
          -65 callgsubr
          282 175 -16 callgsubr
        </CharString>
        <CharString name="Ecircumflex">
          268 callgsubr
          hstem
          37 469 vstem
          -65 callgsubr
          265 77 -1 callgsubr
          endchar
        </CharString>
        <CharString name="Edieresis">
          268 callgsubr
          -18 144 hstemhm
          37 469 -275 58 76 58 hintmask 11101000
          -65 callgsubr
          hintmask 11010110
          77 84 -85 callsubr
          endchar
        </CharString>
        <CharString name="Edotaccent">
          268 callgsubr
          44 60 hstemhm
          37 469 -214 60 hintmask 11101000
          -65 callgsubr
          hintmask 11110100
          139 62 -28 callsubr
        </CharString>
        <CharString name="Egrave">
          268 callgsubr
          -18 63 0 -20 hstemhm
          37 469 hintmask 11101100
          -65 callgsubr
          56 197 rmoveto
          -4 -24 164 -130 rlineto
          hintmask 11010100
          3 20 rlineto
          endchar
        </CharString>
        <CharString name="Emacron">
          268 callgsubr
          98 18 hstem
          37 469 vstem
          -65 callgsubr
          -3 134 99 callsubr
          endchar
        </CharString>
        <CharString name="Eogonek">
          -97 -190 19 171 242 callsubr
          hstem
          199 20 vstem
          502 686 rmoveto
          249 callgsubr
          -125 -704 rlineto
          300 hlineto
          -36 -15 -45 callsubr
          77 33 rcurveline
          4 18 rlineto
          -324 hlineto
          308 callgsubr
          294 162 callsubr
          -294 hlineto
          308 callgsubr
          endchar
        </CharString>
        <CharString name="Eth">
          58 callgsubr
        </CharString>
        <CharString name="Euro">
          261 -7 18 242 18 142 18 262 18 hstemhm
          135 21 -21 22 hintmask 11111000
          142 351 rmoveto
          -5 -28 -2 -27 -25 vvcurveto
          -115 hlineto
          -3 -18 rlineto
          118 hlineto
          -157 9 103 -103 160 hhcurveto
          169 119 85 129 71 hvcurveto
          -20 hlineto
          -112 -61 -115 -84 -160 hhcurveto
          hintmask 11110100
          -142 -103 90 152 -8 hvcurveto
          298 162 callsubr
          hintmask 11111000
          -302 hlineto
          25 2 27 5 28 vhcurveto
          4 22 5 20 6 20 rrcurveto
          305 162 callsubr
          -302 hlineto
          165 60 139 97 148 hhcurveto
          160 85 -84 -113 21 hvcurveto
          20 hlineto
          130 -25 -89 85 -169 hhcurveto
          -166 -145 -112 -168 -60 hvcurveto
          -115 hlineto
          -3 -18 rlineto
          112 hlineto
          -6 -20 -5 -21 -4 -21 rrcurveto
          endchar
        </CharString>
        <CharString name="F">
          -107 21 -21 343 443 callgsubr
          hstem
          37 469 vstem
          162 704 rmoveto
          -125 -704 rlineto
          20 hlineto
          61 343 rlineto
          294 162 callsubr
          -294 hlineto
          308 callgsubr
          324 576 callgsubr
        </CharString>
        <CharString name="G">
          470 callsubr
          hstem
          67 21 2 callsubr
          endchar
        </CharString>
        <CharString name="Gbreve">
          470 callsubr
          49 18 hstem
          67 21 309 21 2 callsubr
          559 512 -66 callgsubr
          endchar
        </CharString>
        <CharString name="Gdotaccent">
          470 callsubr
          38 60 hstem
          67 21 382 60 2 callsubr
          421 397 -28 callsubr
        </CharString>
        <CharString name="H">
          73 21 -21 353 18 333 -20 hstem
          37 604 vstem
          621 704 rmoveto
          -59 -333 rlineto
          -439 hlineto
          59 333 382 callsubr
          63 353 rlineto
          439 hlineto
          -63 -353 rlineto
          20 hlineto
          357 callsubr
          endchar
        </CharString>
        <CharString name="I">
          -386 320 callsubr
          hstem
          37 145 vstem
          55 callsubr
          endchar
        </CharString>
        <CharString name="Iacute">
          -386 320 callsubr
          65 -20 hstem
          37 246 vstem
          55 callsubr
          101 179 -45 callgsubr
          endchar
        </CharString>
        <CharString name="Icircumflex">
          -386 320 callsubr
          hstem
          37 271 vstem
          55 callsubr
          123 59 -1 callgsubr
          endchar
        </CharString>
        <CharString name="Idieresis">
          -386 320 callsubr
          hstemhm
          37 248 -192 58 76 58 hintmask 11100000
          55 callsubr
          hintmask 11011000
          -65 66 -85 callsubr
          endchar
        </CharString>
        <CharString name="Idotaccent">
          -386 320 callsubr
          64 60 hstemhm
          37 177 -60 60 hintmask 11110000
          55 callsubr
          hintmask 11101000
          -3 44 -28 callsubr
        </CharString>
        <CharString name="Igrave">
          -386 320 callsubr
          65 -20 hstem
          37 222 vstem
          55 callsubr
          -86 179 72 callgsubr
          endchar
        </CharString>
        <CharString name="Imacron">
          -386 320 callsubr
          118 18 hstem
          34 312 vstem
          55 callsubr
          -145 116 99 callsubr
          endchar
        </CharString>
        <CharString name="Iogonek">
          -386 -190 19 875 -20 hstem
          -125 20 vstem
          162 704 rmoveto
          -123 -693 -62 -26 -45 callsubr
          77 33 rcurveline
          357 callsubr
          endchar
        </CharString>
        <CharString name="Itilde">
          -386 320 callsubr
          61 18 32 18 hstem
          37 287 vstem
          55 callsubr
          -99 43 -86 callgsubr
          endchar
        </CharString>
        <CharString name="J">
          -150 499 callsubr
          hstem
          9 20 vstem
          403 704 rmoveto
          -99 -561 rlineto
          -58 -11 -41 -74 -105 hhcurveto
          -107 -22 78 84 15 hvcurveto
          -20 hlineto
          -110 -19 45 -70 105 hhcurveto
          99 66 67 83 15 hvcurveto
          99 561 rlineto
          endchar
        </CharString>
        <CharString name="K">
          -82 320 callsubr
          hstem
          37 514 vstem
          524 704 rmoveto
          -402 -338 60 338 382 callsubr
          60 336 282 -336 rlineto
          27 hlineto
          -294 352 419 352 rlineto
          endchar
        </CharString>
        <CharString name="L">
          -181 0 18 686 -20 hstem
          37 294 402 callgsubr
          endchar
        </CharString>
        <CharString name="Lacute">
          -181 0 18 686 -20 65 -20 hstem
          37 353 402 callgsubr
          329 865 -45 callgsubr
          endchar
        </CharString>
        <CharString name="Lcaron">
          -181 0 18 539 20 74 53 hstem
          334.5 30.5 vstem
          365 704 rmoveto
          -56 hlineto
          -10 -53 rlineto
          38 hlineto
          -5 -29 rlineto
          -29 -5 -13 -16 -35 hhcurveto
          -3 -20 rlineto
          40 29 15 63 11 hvcurveto
          4 18 2 22 3 29 rrcurveto
          -183 hmoveto
          450 callgsubr
        </CharString>
        <CharString name="Ldot">
          -181 0 18 290 60 336 -20 hstemhm
          37 304 -60 60 hintmask 11110000
          37 hmoveto
          290 345 callgsubr
          -270 hlineto
          121 686 rlineto
          -20 hlineto
          hintmask 11101000
          144 -396 -28 callsubr
        </CharString>
        <CharString name="Lslash">
          -161 0 18 686 -20 hstem
          17 334 vstem
          202 704 rmoveto
          -20 hlineto
          -58 -325 -103 -45 -4 -22 103 45 -63 -357 rlineto
          290 345 callgsubr
          -270 hlineto
          61 349 174 75 4 22 -174 -75 rlineto
          endchar
        </CharString>
        <CharString name="M">
          221 0 27 hstem
          37 748 vstem
          158 684 rmoveto
          -121 -684 rlineto
          20 hlineto
          112 633 172 -633 rlineto
          20 hlineto
          395 635 -112 -635 rlineto
          20 hlineto
          121 684 rlineto
          -20 hlineto
          -408 -657 -179 657 rlineto
          endchar
        </CharString>
        <CharString name="N">
          180 callgsubr
          endchar
        </CharString>
        <CharString name="NULL">
          -576 endchar
        </CharString>
        <CharString name="Nacute">
          378 callgsubr
          66 -20 hstemhm
          37 601 hintmask 01011100
          638 703 rmoveto
          -20 hlineto
          hintmask 10011100
          158 callgsubr
          hintmask 01101100
          291 callsubr
          -2 883 -45 callgsubr
          endchar
        </CharString>
        <CharString name="Ncaron">
          180 callgsubr
          37 861 -16 callgsubr
        </CharString>
        <CharString name="Ntilde">
          378 callgsubr
          62 18 32 18 hstemhm
          37 601 hintmask 01011110
          638 703 rmoveto
          -20 hlineto
          hintmask 10011110
          158 callgsubr
          hintmask 01101110
          291 callsubr
          -202 747 -86 callgsubr
          endchar
        </CharString>
        <CharString name="O">
          572 callsubr
          644 -88 callgsubr
          endchar
        </CharString>
        <CharString name="OE">
          529 -8 18 -10 242 callsubr
          -12 18 hstemhm
          66 21 644 14 hintmask 01110110
          804 686 rmoveto
          324 hlineto
          249 callgsubr
          -43 -242 rlineto
          hintmask 10101110
          150 -6 -111 98 -155 hhcurveto
          -196 -167 -148 -211 -37 hvcurveto
          -211 -37 114 -148 196 hhcurveto
          155 146 98 150 59 hvcurveto
          hintmask 01110110
          -43 -240 rlineto
          344 345 callgsubr
          -324 hlineto
          308 callgsubr
          294 162 callsubr
          -294 hlineto
          hintmask 10101110
          -653 -10 rmoveto
          212 38 162 129 175 hhcurveto
          175 118 -129 -212 -38 hvcurveto
          -212 -37 -163 -129 -175 hhcurveto
          -175 -117 129 212 37 hvcurveto
          endchar
        </CharString>
        <CharString name="Oacute">
          318 callgsubr
          39 -20 hstem
          67 21 644 -88 callgsubr
          245 873 -45 callgsubr
          endchar
        </CharString>
        <CharString name="Ocircumflex">
          572 callsubr
          644 -88 callgsubr
          267 753 -1 callgsubr
          endchar
        </CharString>
        <CharString name="Odieresis">
          572 callsubr
          317 58 76 58 135 -88 callgsubr
          79 760 -85 callsubr
          endchar
        </CharString>
        <CharString name="Ograve">
          318 callgsubr
          39 -20 hstem
          67 21 644 -88 callgsubr
          58 873 72 callgsubr
          endchar
        </CharString>
        <CharString name="Ohungarumlaut">
          318 callgsubr
          34 104 hstem
          67 21 644 -88 callgsubr
          287 838 rmoveto
          -23 hlineto
          238 callgsubr
        </CharString>
        <CharString name="Omacron">
          318 callgsubr
          92 18 hstem
          67 21 644 -88 callgsubr
          -1 810 99 callsubr
          endchar
        </CharString>
        <CharString name="Oslash">
          216 -8 18 11 -21 692 18 -6 -20 hstemhm
          67 21 644 21 hintmask 10101100
          347 -8 rmoveto
          230 176 203 233 hvcurveto
          hintmask 10011100
          70 -19 61 -34 47 vhcurveto
          108 98 rlineto
          -24 hlineto
          hintmask 01101100
          -94 -86 rlineto
          58 -48 -75 34 -93 hhcurveto
          -231 -176 -204 -232 -70 19 -60 33 -47 hvcurveto
          -106 -97 rlineto
          25 hlineto
          hintmask 10101100
          92 84 rlineto
          -58 49 75 -34 93 hhcurveto
          -259 283 rmoveto
          219 160 198 222 86 72 -31 -57 47 vhcurveto
          -540 -493 rlineto
          -30 43 -17 55 66 vvcurveto
          262 -265 rmoveto
          -86 -72 31 57 -47 hvcurveto
          540 493 rlineto
          30 -42 17 -55 -66 vvcurveto
          -224 -163 -194 -219 vhcurveto
          endchar
        </CharString>
        <CharString name="Otilde">
          318 callgsubr
          35 18 32 18 hstem
          67 21 644 -88 callgsubr
          45 737 -86 callgsubr
          endchar
        </CharString>
        <CharString name="P">
          -48 21 -21 317 21 346 20 hstem
          514 20 vstem
          275 338 257 callsubr
          -178 hlineto
          -125 -704 rlineto
          20 hlineto
          56 317 rlineto
          158 hlineto
          146 90 63 130 23 hvcurveto
          endchar
        </CharString>
        <CharString name="Q">
          572 callsubr
          644 21 vstem
          350 10 rmoveto
          -153 -109 99 166 219 160 198 222 153 109 -98 -166 -224 -163 -194 -219 hvcurveto
          -3 -18 rmoveto
          40 38 6 11 35 hvcurveto
          174 -158 rlineto
          35 hlineto
          -183 167 rlineto
          158 62 109 165 183 vvcurveto
          169 -108 113 -171 -231 -176 -204 -232 -169 109 -113 171 vhcurveto
          endchar
        </CharString>
        <CharString name="R">
          436 callgsubr
          hstemhm
          515 21 hintmask 11011000
          511 506 10 callgsubr
          hintmask 10111000
          302 callgsubr
          hintmask 11011000
          455 callsubr
          endchar
        </CharString>
        <CharString name="Racute">
          436 callgsubr
          45 -20 hstemhm
          515 21 hintmask 11011100
          511 506 10 callgsubr
          hintmask 10111100
          302 callgsubr
          hintmask 11011100
          455 callsubr
          146 179 -45 callgsubr
          endchar
        </CharString>
        <CharString name="Rcaron">
          436 callgsubr
          hstemhm
          515 21 hintmask 11011000
          511 506 10 callgsubr
          hintmask 10111000
          302 callgsubr
          hintmask 11011000
          455 callsubr
          185 157 -16 callgsubr
        </CharString>
        <CharString name="S">
          67 callgsubr
          endchar
        </CharString>
        <CharString name="Sacute">
          -48 -7 460 callsubr
          38 -20 hstemhm
          35 20 376 21 27 20 hintmask 11111000
          229 -7 rmoveto
          130 119 callsubr
          hintmask 11111100
          106 callgsubr
          hintmask 11111000
          81 callgsubr
          -89 -6 59 -84 141 hhcurveto
          226 890 -45 callgsubr
          endchar
        </CharString>
        <CharString name="Scaron">
          67 callgsubr
          265 868 -16 callgsubr
        </CharString>
        <CharString name="T">
          -106 21 -21 686 18 hstem
          93 434 vstem
          97 704 224 callsubr
          endchar
        </CharString>
        <CharString name="Tcaron">
          -106 21 -21 686 18 hstem
          93 434 vstem
          97 704 224 callsubr
          -64 157 -16 callgsubr
        </CharString>
        <CharString name="Thorn">
          -48 21 -21 159 21 346 20 -20 178 hstemhm
          486 20 hintmask 11101000
          247 180 257 callsubr
          -158 hlineto
          hintmask 11011000
          28 158 382 callsubr
          28 159 rlineto
          158 hlineto
          hintmask 11101000
          146 91 63 130 22 hvcurveto
          endchar
        </CharString>
        <CharString name="U">
          383 callsubr
          hstem
          72 20 -84 callsubr
          endchar
        </CharString>
        <CharString name="Uacute">
          383 callsubr
          65 -20 hstem
          72 20 -84 callsubr
          325 179 -45 callgsubr
          endchar
        </CharString>
        <CharString name="Ubreve">
          383 callsubr
          75 18 hstem
          72 20 208 21 -84 callsubr
          359 159 -66 callgsubr
          endchar
        </CharString>
        <CharString name="Ucircumflex">
          383 callsubr
          hstem
          72 20 -84 callsubr
          347 59 -1 callgsubr
          endchar
        </CharString>
        <CharString name="Udieresis">
          383 callsubr
          hstem
          72 20 220 58 76 58 -84 callsubr
          159 66 -85 callsubr
          endchar
        </CharString>
        <CharString name="Ugrave">
          383 callsubr
          65 -20 hstem
          72 20 -84 callsubr
          138 179 72 callgsubr
          endchar
        </CharString>
        <CharString name="Uhungarumlaut">
          383 callsubr
          60 104 hstem
          72 20 -84 callsubr
          367 144 rmoveto
          -23 hlineto
          238 callgsubr
        </CharString>
        <CharString name="Umacron">
          383 callsubr
          118 18 hstem
          72 20 -84 callsubr
          79 116 99 callsubr
          endchar
        </CharString>
        <CharString name="Uogonek">
          53 -190 19 164 18 693 -20 hstem
          72 20 56 20 vstem
          157 704 rmoveto
          -78 -437 rlineto
          -194 -34 85 -80 138 hhcurveto
          1 hlineto
          -19 -8 -45 callsubr
          72 31 rcurveline
          110 20 84 83 29 166 78 437 rcurveline
          -20 hlineto
          -78 -437 -28 -160 -78 -73 -98 -18 rlinecurve
          -1 -1 rlineto
          -3 -17 -17 -1 -18 hhcurveto
          -124 -81 68 188 33 397 callsubr
          endchar
        </CharString>
        <CharString name="Uring">
          383 callsubr
          74 18 144 18 hstem
          72 20 -84 callsubr
          149 144 22 callgsubr
          endchar
        </CharString>
        <CharString name="Utilde">
          383 callsubr
          61 18 32 18 hstem
          72 20 -84 callsubr
          125 43 -86 callgsubr
          endchar
        </CharString>
        <CharString name="V">
          43 0 35 -14 428 callsubr
          hstemhm
          107 559 hintmask 01110000
          107 704 rmoveto
          144 -704 rlineto
          20 hlineto
          395 704 rlineto
          -24 hlineto
          hintmask 10110000
          -375 -669 -136 669 rlineto
          endchar
        </CharString>
        <CharString name="W">
          226 callgsubr
          1 callgsubr
          endchar
        </CharString>
        <CharString name="Wacute">
          226 callgsubr
          1 callgsubr
          583 200 -45 callgsubr
          endchar
        </CharString>
        <CharString name="Wcircumflex">
          226 callgsubr
          1 callgsubr
          502 80 -1 callgsubr
          endchar
        </CharString>
        <CharString name="Wdieresis">
          226 callgsubr
          -521 58 76 58 1 callgsubr
          hintmask 10101100
          313 87 -85 callsubr
          endchar
        </CharString>
        <CharString name="Wgrave">
          226 callgsubr
          1 callgsubr
          206 200 72 callgsubr
          endchar
        </CharString>
        <CharString name="X">
          -76 320 callsubr
          hstem
          -18 565 vstem
          399 hmoveto
          23 hlineto
          -146 352 271 352 rlineto
          -23 hlineto
          -256 -333 -138 333 rlineto
          -23 hlineto
          144 -347 -269 -357 rlineto
          23 hlineto
          254 338 rlineto
          endchar
        </CharString>
        <CharString name="Y">
          -58 320 callsubr
          hstem
          107 458 vstem
          20 callsubr
          endchar
        </CharString>
        <CharString name="Yacute">
          -58 320 callsubr
          65 -20 hstem
          107 458 vstem
          20 callsubr
          317 179 -45 callgsubr
          endchar
        </CharString>
        <CharString name="Ycircumflex">
          -58 320 callsubr
          hstem
          107 458 vstem
          20 callsubr
          339 59 -1 callgsubr
          endchar
        </CharString>
        <CharString name="Ydieresis">
          -58 320 callsubr
          hstemhm
          107 458 -307 58 76 58 hintmask 11100000
          20 callsubr
          hintmask 11011000
          151 66 -85 callsubr
          endchar
        </CharString>
        <CharString name="Ygrave">
          -58 320 callsubr
          65 -20 hstem
          107 458 vstem
          20 callsubr
          130 179 72 callgsubr
          endchar
        </CharString>
        <CharString name="Z">
          -89 0 19 665 20 hstem
          -13 532 vstem
          84 callsubr
          endchar
        </CharString>
        <CharString name="Zacute">
          -89 0 19 665 20 -20 65 0 -20 hstemhm
          -13 532 hintmask 11011000
          84 callsubr
          420 864 rmoveto
          hintmask 10101000
          -211 -134 rlineto
          hintmask 11011000
          -3 -20 210 130 rlineto
          endchar
        </CharString>
        <CharString name="Zcaron">
          -89 0 19 665 20 hstem
          -13 532 vstem
          84 callsubr
          459 842 -16 callgsubr
        </CharString>
        <CharString name="Zdotaccent">
          -89 0 19 665 20 44 60 hstemhm
          -13 532 -215 60 hintmask 11010000
          84 callsubr
          hintmask 11101000
          316 729 -28 callsubr
        </CharString>
        <CharString name="a">
          176 callgsubr
          -7 -20 384 callgsubr
          hintmask 10101100
          60 270 35 callsubr
          96 44 hvcurveto
          hintmask 01011100
          64 callsubr
          hintmask 10101100
          96 456 callsubr
          212 callsubr
        </CharString>
        <CharString name="a.ss02">
          -1 173 callgsubr
          457 callgsubr
          hintmask 10111100
          449 146 rmoveto
          hintmask 01111100
          -78 callgsubr
          hintmask 10111100
          -58 callsubr
        </CharString>
        <CharString name="aacute">
          176 callgsubr
          -7 -20 220 -20 -3 callsubr
          -65 470 -45 callgsubr
          endchar
        </CharString>
        <CharString name="aacute.ss02">
          -1 173 callgsubr
          195 -20 457 callgsubr
          hintmask 10111110
          502 505 callsubr
          -49 -570 rmoveto
          hintmask 01111110
          -78 callgsubr
          hintmask 10111110
          -58 callsubr
        </CharString>
        <CharString name="abreve">
          176 callgsubr
          -7 -20 96 18 hstemhm
          54 20 226 21 251 14 hintmask 10101101
          60 270 35 callsubr
          96 44 hvcurveto
          hintmask 01011101
          64 callsubr
          hintmask 10101101
          96 456 callsubr
          -89 callgsubr
          -31 450 rmoveto
          1 4 rlineto
          -20 hlineto
          hintmask 10101111
          -57 -10 -42 -33 -62 hhcurveto
          -62 -30 33 57 10 hvcurveto
          -20 hlineto
          -1 -4 rlineto
          -48 -8 23 -56 85 hhcurveto
          hintmask 10101101
          85 43 56 48 8 hvcurveto
          endchar
        </CharString>
        <CharString name="abreve.ss02">
          -1 173 callgsubr
          71 18 hstemhm
          38 18 242 21 164 20 hintmask 10111111
          534 720 -66 callgsubr
          -85 -574 rmoveto
          hintmask 01111111
          -78 callgsubr
          hintmask 10111111
          -58 callsubr
        </CharString>
        <CharString name="acircumflex">
          176 callgsubr
          -7 -20 384 callgsubr
          hintmask 10101100
          60 270 35 callsubr
          96 44 hvcurveto
          hintmask 01011100
          64 callsubr
          hintmask 10101100
          96 456 callsubr
          -89 callgsubr
          -43 350 -1 callgsubr
          endchar
        </CharString>
        <CharString name="acircumflex.ss02">
          -1 173 callgsubr
          457 callgsubr
          hintmask 10111100
          522 620 -1 callgsubr
          36 -555 rmoveto
          hintmask 01111100
          -78 callgsubr
          hintmask 10111100
          -58 callsubr
        </CharString>
        <CharString name="acute">
          -309 740 -20 hstem
          96 214 vstem
          310 505 callsubr
          endchar
        </CharString>
        <CharString name="adieresis">
          176 callgsubr
          -7 -20 hstemhm
          54 20 238 58 76 58 68 14 hintmask 10101001
          60 270 35 callsubr
          96 44 hvcurveto
          hintmask 01011001
          64 callsubr
          hintmask 10101001
          96 456 callsubr
          -89 callgsubr
          hintmask 10101111
          -231 357 -85 callsubr
          endchar
        </CharString>
        <CharString name="adieresis.ss02">
          -1 173 callgsubr
          82 60 hstemhm
          38 18 254 58 76 58 -19 20 hintmask 1011111010000000
          334 627 rmoveto
          18 16 17 18 14 -9 11 -14 -19 -16 -17 -18 -14 9 -11 15 hvcurveto
          hintmask 1011111100000000
          134 hmoveto
          18 16 17 19 13 -9 11 -14 -19 -16 -17 -18 -14 9 -11 15 hvcurveto
          hintmask 1011111010000000
          -19 -481 rmoveto
          hintmask 0111111010000000
          -78 callgsubr
          hintmask 1011111010000000
          -58 callsubr
        </CharString>
        <CharString name="ae">
          507 callsubr
          hstemhm
          54 20 495 11 -8 8 -8 12 483 20 hintmask 1011010101000000
          151 callsubr
          hintmask 1011010011000000
          -113 -111 -62 -120 -49 hvcurveto
          hintmask 1010110011000000
          31 175 rlineto
          -19 hlineto
          -31 -174 rlineto
          hintmask 1011010011000000
          374 callgsubr
          hintmask 1011011001000000
          128 102 76 105 46 hvcurveto
          hintmask 0111011001000000
          -31 -174 rlineto
          19 hlineto
          31 175 rlineto
          hintmask 1011011001000000
          -122 7 89 -60 113 hhcurveto
          hintmask 1011010101000000
          109 callsubr
          -980 87 rmoveto
          161 28 113 98 148 385 callsubr
          -103 -156 -28 hvcurveto
          -156 -28 -121 -103 -141 hhcurveto
          -148 -77 98 161 28 hvcurveto
          endchar
        </CharString>
        <CharString name="agrave">
          176 callgsubr
          -7 -20 220 -20 -3 callsubr
          -252 470 72 callgsubr
          endchar
        </CharString>
        <CharString name="agrave.ss02">
          -1 173 callgsubr
          195 -20 457 callgsubr
          hintmask 10111110
          313 740 72 callgsubr
          -27 -460 rmoveto
          hintmask 01111110
          -78 callgsubr
          hintmask 10111110
          -58 callsubr
        </CharString>
        <CharString name="amacron">
          176 callgsubr
          -7 -20 139 18 -3 callsubr
          -311 407 99 callsubr
          endchar
        </CharString>
        <CharString name="amacron.ss02">
          0 173 callgsubr
          114 18 457 callgsubr
          hintmask 10111110
          254 677 99 callsubr
          -114 -531 rmoveto
          hintmask 01111110
          -78 callgsubr
          hintmask 10111110
          -58 callsubr
        </CharString>
        <CharString name="ampersand">
          96 -10 19 12 -21 690 19 hstemhm
          28 20 131 20 273 20 hintmask 10111100
          470 573 rmoveto
          20 hlineto
          1 8 1 8 8 vvcurveto
          73 -61 39 -72 -102 -78 -68 -94 -47 21 -41 37 -46 vhcurveto
          -3 -1 rlineto
          -125 -44 -81 -87 -113 vvcurveto
          -105 79 -73 117 95 77 37 82 83 vhcurveto
          hintmask 01111100
          87 -109 rlineto
          23 hlineto
          -97 123 35 36 36 44 39 52 rlinecurve
          78 105 rlineto
          -22 hlineto
          -64 -85 -41 -55 -37 -46 -35 -37 rlinecurve
          -229 290 rlineto
          -33 41 -20 38 42 vvcurveto
          85 69 57 90 63 51 -33 -63 vhcurveto
          hintmask 10111100
          -7 -1 -7 -1 -7 vhcurveto
          -246 -564 rmoveto
          -106 -70 65 94 109 76 77 117 41 hvcurveto
          8 3 219 -274 rlineto
          -79 -79 -73 -36 -92 hhcurveto
          endchar
        </CharString>
        <CharString name="ampersand.ss03">
          88 -7 20 8 -21 366 20 307 18 hstemhm
          23 20 187 20 140 21 123 20 hintmask 10111111
          415 711 rmoveto
          -105 -64 -72 -73 -13 hvcurveto
          -13 -76 30 -43 35 -43 37 -46 rcurveline
          16 -17 -32 12 -36 hhcurveto
          -96 -92 -64 -128 -22 hvcurveto
          -129 -23 80 -72 104 hhcurveto
          108 92 78 109 19 hvcurveto
          5 28 0 17 -6 18 rrcurveto
          hintmask 01111111
          184 -243 rlineto
          24 hlineto
          -321 428 -28 38 -23 36 11 64 rlinecurve
          66 12 57 61 90 hhcurveto
          90 45 -56 -91 -16 hvcurveto
          -2 -8 -1 -8 -3 -9 rrcurveto
          20 hlineto
          3 9 1 9 2 9 rrcurveto
          hintmask 10111111
          80 14 -31 83 -119 hhcurveto
          -368 -517 rmoveto
          116 20 80 56 87 hhcurveto
          89 83 -78 -108 -19 hvcurveto
          -97 -17 -81 -70 -97 hhcurveto
          -93 -73 64 117 21 hvcurveto
          299 133 rmoveto
          -14 16 rlineto
          -1 2 -1 1 2 vvcurveto
          endchar
        </CharString>
        <CharString name="aogonek">
          95 -190 19 164 443 callsubr
          -7 -20 hstemhm
          54 20 282 20 196 14 hintmask 11101110
          60 270 35 callsubr
          96 44 hvcurveto
          -27 -154 -63 -26 -45 callsubr
          77 33 rcurveline
          hintmask 11011110
          528 callgsubr
          -19 hlineto
          -29 -165 rlineto
          hintmask 11101110
          96 456 callsubr
          212 callsubr
        </CharString>
        <CharString name="aogonek.ss02">
          -1 -190 19 161 17 290 18 213 17 hstem
          38 18 204 20 203 20 vstem
          449 146 rmoveto
          -24 -135 -63 -26 -45 callsubr
          77 33 rcurveline
          55 314 rlineto
          4 23 2 22 19 vvcurveto
          111 -61 56 -109 -126 -81 -80 -105 -36 vhcurveto
          19 hlineto
          105 36 79 63 106 hhcurveto
          104 49 -51 -103 -18 -2 -20 -3 -21 hvcurveto
          -209 hlineto
          -134 -97 -72 -115 -89 60 -49 93 120 90 66 90 48 hvcurveto
          -255 -139 rmoveto
          -83 -55 44 77 99 80 70 130 hvcurveto
          209 hlineto
          -8 -44 rlineto
          -148 -26 -114 -98 -133 hhcurveto
          endchar
        </CharString>
        <CharString name="apostrophemod.ss01">
          -454 593 20 74 53 hstem
          141 30 vstem
          171 740 rmoveto
          6 callgsubr
          endchar
        </CharString>
        <CharString name="approxequal">
          -164 268 21 46 21 87 21 46 21 hstem
          42 347 vstem
          42 268 rmoveto
          144 callgsubr
          175 vmoveto
          144 callgsubr
          endchar
        </CharString>
        <CharString name="aring">
          176 callgsubr
          -7 -20 95 18 144 18 384 callgsubr
          hintmask 10101111
          60 270 35 callsubr
          96 44 hvcurveto
          hintmask 01011111
          64 callsubr
          hintmask 10101111
          96 456 callsubr
          -89 callgsubr
          -241 435 22 callgsubr
          endchar
        </CharString>
        <CharString name="aring.ss02">
          -1 173 callgsubr
          70 18 144 18 457 callgsubr
          hintmask 10111111
          324 705 22 callgsubr
          -35 -559 rmoveto
          hintmask 01111111
          -78 callgsubr
          hintmask 10111111
          -58 callsubr
        </CharString>
        <CharString name="asciicircum">
          -24 174 509 hstem
          23 472 vstem
          345 653 rmoveto
          130 -479 rlineto
          20 hlineto
          -140 509 rlineto
          -12 hlineto
          -320 -509 579 callgsubr
        </CharString>
        <CharString name="asciitilde">
          -164 279 21 46 21 hstem
          42 347 vstem
          42 279 rmoveto
          144 callgsubr
          endchar
        </CharString>
        <CharString name="asterisk">
          -147 545 -20 hstem
          88 354 vstem
          277 559 rmoveto
          31 169 rlineto
          -18 hlineto
          -29 -169 -132 82 -9 -15 131 -81 -163 -79 8 -17 160 82 -31 -171 rlineto
          18 hlineto
          29 171 132 -82 9 15 -132 81 161 79 -7 17 rlineto
          endchar
        </CharString>
        <CharString name="at">
          389 -186 18 163 18 406 18 169 18 hstemhm
          66 20 181 20 327 17 7 11 212 20 hintmask 1111111010000000
          409 -186 rmoveto
          60 62 12 20 53 hvcurveto
          -5 18 rlineto
          -20 -50 -56 -12 -58 hhcurveto
          -198 -132 117 198 1 hvcurveto
          251 1 189 208 250 hhcurveto
          200 135 -126 -190 -132 -61 -145 -99 -54 -25 48 65 12 hvcurveto
          hintmask 1111110110000000
          52 296 rlineto
          -18 hlineto
          -19 -109 rlineto
          80 -12 -56 44 -78 hhcurveto
          -141 -95 -131 -143 -102 58 -66 100 hvcurveto
          hintmask 1111111010000000
          76 73 42 76 40 hvcurveto
          -67 -7 27 -51 64 hhcurveto
          117 66 150 149 194 -145 136 -207 -265 -198 -212 -270 -202 141 -126 202 hvcurveto
          92 605 rmoveto
          hintmask 1111110110000000
          111 42 -92 -111 -22 hvcurveto
          -135 -24 -86 -68 -93 hhcurveto
          -89 -53 58 94 hvcurveto
          hintmask 1111111010000000
          129 83 125 131 vhcurveto
          endchar
        </CharString>
        <CharString name="atilde">
          176 callgsubr
          -7 -20 82 18 32 18 384 callgsubr
          hintmask 10101111
          60 270 35 callsubr
          96 44 hvcurveto
          hintmask 01011111
          64 callsubr
          hintmask 10101111
          96 456 callsubr
          -89 callgsubr
          -265 334 -86 callgsubr
          endchar
        </CharString>
        <CharString name="atilde.ss02">
          -1 173 callgsubr
          57 18 32 18 457 callgsubr
          hintmask 10111111
          300 604 -86 callgsubr
          149 -458 rmoveto
          hintmask 01111111
          -78 callgsubr
          hintmask 10111111
          -58 callsubr
        </CharString>
        <CharString name="b">
          176 callgsubr
          193 -20 hstemhm
          85 14 498 20 hintmask 10111100
          123 375 rmoveto
          64 365 rlineto
          -19 hlineto
          hintmask 01111100
          -131 -740 rlineto
          19 hlineto
          29 165 rlineto
          hintmask 10111100
          -96 13 72 -76 129 448 callsubr
          -129 -98 -76 -96 -47 hvcurveto
          468 -105 142 callsubr
        </CharString>
        <CharString name="backslash">
          -138 -156 1091 hstem
          126 183 vstem
          309 -156 rmoveto
          -160 1091 rlineto
          -23 hlineto
          162 -1091 rlineto
          endchar
        </CharString>
        <CharString name="bar">
          565 callsubr
          195 778 rmoveto
          -20 hlineto
          -153 -864 579 callgsubr
        </CharString>
        <CharString name="braceleft">
          -281 -185 18 1078 18 hstemhm
          58 18 -12 20 63 20 hintmask 11101000
          56 360 rmoveto
          75 -25 16 -26 -48 vvcurveto
          hintmask 11011000
          -82 -83 -178 -85 vvcurveto
          -73 45 -28 74 vhcurveto
          31 162 callsubr
          -31 hlineto
          -63 -39 24 59 hvcurveto
          88 83 170 87 vvcurveto
          hintmask 11101000
          60 -27 28 -64 22 vhcurveto
          2 vlineto
          87 18 42 58 14 81 13 75 -13 89 17 97 rrcurveto
          88 15 51 32 74 hhcurveto
          31 162 callsubr
          -31 hlineto
          -86 -60 -38 -100 -17 hvcurveto
          -17 -93 15 -83 -15 -85 -11 -61 -21 -53 -107 -32 rrcurveto
          endchar
        </CharString>
        <CharString name="braceright">
          -281 -185 18 1078 18 hstemhm
          165 19 62 20 -5 12 hintmask 11101000
          271 360 rmoveto
          4 24 -102 34 7 67 8 45 rlinecurve
          15 84 43 84 17 93 rrcurveto
          hintmask 11110000
          100 17 -46 38 -86 hhcurveto
          -31 hlineto
          -3 -18 rlineto
          31 hlineto
          74 39 -32 -88 -15 hvcurveto
          hintmask 11101000
          -17 -97 -45 -89 -13 -75 -13 -74 24 -62 82 -21 rrcurveto
          -2 vlineto
          -90 -21 -46 -62 -13 -74 -13 -75 13 -89 -17 -97 rrcurveto
          -88 -15 -51 -32 -74 hhcurveto
          -31 hlineto
          -3 -18 rlineto
          31 hlineto
          86 59 38 100 18 hvcurveto
          17 93 -15 84 15 84 8 45 17 67 114 34 rrcurveto
          endchar
        </CharString>
        <CharString name="bracketleft">
          -343 -185 18 1083 18 hstem
          5 291 vstem
          202 934 rmoveto
          -197 -1119 rlineto
          94 162 callsubr
          -74 hlineto
          191 1083 rlineto
          74 403 callsubr
        </CharString>
        <CharString name="bracketright">
          -343 -185 18 1083 18 hstem
          -26 291 vstem
          265 934 rmoveto
          -94 hlineto
          -3 -18 rlineto
          74 hlineto
          -191 -1083 rlineto
          -74 hlineto
          -3 -18 rlineto
          94 hlineto
          endchar
        </CharString>
        <CharString name="breve">
          -260 616 18 hstem
          119 21 vstem
          355 720 -66 callgsubr
          endchar
        </CharString>
        <CharString name="brokenbar">
          565 callsubr
          104 265 rmoveto
          -20 hlineto
          -62 -351 rlineto
          20 hlineto
          71 514 rmoveto
          20 hlineto
          62 350 rlineto
          -20 hlineto
          endchar
        </CharString>
        <CharString name="bullet">
          -320 236 196 hstem
          40 199 vstem
          122 236 rmoveto
          55 51 43 54 9 hvcurveto
          55 10 -35 44 -55 hhcurveto
          -54 -52 -44 -55 -10 hvcurveto
          -54 -9 36 -43 54 hhcurveto
          endchar
        </CharString>
        <CharString name="c">
          52 369 callgsubr
          hstem
          54 20 489 -19 callgsubr
          endchar
        </CharString>
        <CharString name="cacute">
          52 369 callgsubr
          193 -20 hstem
          54 20 489 -19 callgsubr
          420 470 -45 callgsubr
          endchar
        </CharString>
        <CharString name="caron">
          -249 617 101 hstem
          115 251 vstem
          366 718 -16 callgsubr
        </CharString>
        <CharString name="ccaron">
          52 369 callgsubr
          hstem
          54 20 489 -19 callgsubr
          459 448 -16 callgsubr
        </CharString>
        <CharString name="ccedilla">
          52 418 callsubr
          82 443 callsubr
          hstem
          54 20 284 20 185 20 vstem
          60 270 rmoveto
          -30 -170 87 -102 144 -5 -18 -100 rcurveline
          45 callgsubr
          15 82 rcurveline
          135 4 100 78 37 108 rrcurveto
          22 callsubr
          endchar
        </CharString>
        <CharString name="cdotaccent">
          52 369 callgsubr
          58 60 hstem
          54 20 277 60 152 -19 callgsubr
          316 335 -28 callsubr
        </CharString>
        <CharString name="cedilla">
          -327 418 callsubr
          hstem
          112 20 vstem
          20 -89 rmoveto
          17 96 rlineto
          -20 hlineto
          -20 -114 rlineto
          45 callgsubr
          rrcurveto
          endchar
        </CharString>
        <CharString name="cent">
          12 23 18 -17 17 458 18 hstemhm
          55 20 443 20 hintmask 10111000
          344 623 rmoveto
          -19 -107 -130 -8 -109 -90 -26 -148 rlinecurve
          hintmask 01111000
          -26 -148 77 -91 128 -7 -21 -117 rcurveline
          20 hlineto
          hintmask 10111000
          20 116 rlineto
          127 95 79 111 38 hvcurveto
          404 callgsubr
          -93 -65 -109 hhcurveto
          -114 -94 71 158 28 hvcurveto
          158 28 118 71 114 hhcurveto
          109 71 -65 -107 -2 hvcurveto
          20 hlineto
          2 111 -67 78 -128 1 19 106 rcurveline
          endchar
        </CharString>
        <CharString name="circumflex">
          -249 620 101 hstem
          102 250 vstem
          349 620 -1 callgsubr
          endchar
        </CharString>
        <CharString name="colon">
          244 callsubr
          453 vmoveto
          362 callsubr
        </CharString>
        <CharString name="colon.ss01">
          -463 0 49 405 49 hstem
          -17 139 vstem
          -8 468 callgsubr
          30 454 rmoveto
          194 callgsubr
          endchar
        </CharString>
        <CharString name="comma">
          -463 -155 248 hstem
          -98 147 vstem
          23 93 487 callsubr
        </CharString>
        <CharString name="comma.ss01">
          -457 -86 18 61 38 hstemhm
          -8.5 486 callgsubr
          hintmask 11100000
          46 31 rmoveto
          -51 hlineto
          -7 -38 rlineto
          hintmask 11010000
          319 callsubr
          hintmask 11100000
          399 callsubr
          endchar
        </CharString>
        <CharString name="copyright">
          227 2 18 -18 112 20 436 -301 166 155 112 -18 18 hstemhm
          67 21 -21 134 543 20 hintmask 1000011010000000
          478 702 rmoveto
          -203 -164 -145 -205 -37 hvcurveto
          -205 -36 114 -145 203 hhcurveto
          203 163 145 205 36 hvcurveto
          205 37 -113 145 -203 hhcurveto
          -3 -18 rmoveto
          197 99 -142 -190 -34 hvcurveto
          -190 -33 -149 -142 -197 hhcurveto
          -198 -99 142 190 33 hvcurveto
          190 34 149 142 198 hhcurveto
          hintmask 1001101010000000
          -14 -94 rmoveto
          91 75 -53 -102 10 hvcurveto
          -21 hlineto
          hintmask 1010011010000000
          90 -12 -67 45 -79 hhcurveto
          -100 -107 -73 -146 -26 hvcurveto
          -144 -25 81 -73 100 hhcurveto
          hintmask 0101010110000000
          79 83 45 90 44 hvcurveto
          21 hlineto
          -102 -46 -94 -53 -91 hhcurveto
          -113 -86 81 158 28 hvcurveto
          hintmask 1001101010000000
          156 27 115 81 113 hhcurveto
          endchar
        </CharString>
        <CharString name="currency">
          -75 205 18 308 18 hstemhm
          116 20 -17 17 267 17 -17 20 hintmask 11100100
          296 531 rmoveto
          69 52 -59 -95 -17 hvcurveto
          -97 -17 -73 -57 -68 hhcurveto
          -74 -46 57 97 17 hvcurveto
          95 17 66 59 74 hhcurveto
          hintmask 11101000
          103 -341 rmoveto
          16 13 -51 60 27 29 21 39 8 46 rlinecurve
          hintmask 11010100
          8 46 -7 39 -18 30 74 61 rcurveline
          -12 13 -71 -61 rlineto
          28 -23 -34 16 -38 hhcurveto
          -40 -39 -16 -28 -32 hvcurveto
          -50 61 -16 -13 52 -62 -27 -29 -20 -39 -8 -46 rlinecurve
          -8 -46 6 -39 16 -29 -73 -60 rcurveline
          12 -13 70 60 rlineto
          -29 21 34 -16 42 hhcurveto
          hintmask 11101000
          39 39 16 28 33 hvcurveto
          endchar
        </CharString>
        <CharString name="d">
          176 callgsubr
          193 -20 384 callgsubr
          hintmask 10111100
          60 270 35 callsubr
          97 45 hvcurveto
          hintmask 01111100
          375 callgsubr
          hintmask 10111100
          212 callsubr
        </CharString>
        <CharString name="dagger">
          -147 -233 -21 775.5 18.5 hstem
          74 373 vstem
          447 540 rmoveto
          -178 -3 44 237 rlineto
          -18 hlineto
          -41 -237 -176 3 -4 -20 178 3 -138 -777 rlineto
          18 hlineto
          135 777 176 -3 rlineto
          endchar
        </CharString>
        <CharString name="daggerdbl">
          -146 -233 -21 235.5 17.5 522.5 18.5 hstem
          -21 469 vstem
          444 520 rmoveto
          4 20 -178 -3 43 237 rlineto
          -18 hlineto
          -40 -237 -177 3 -4 -20 179 3 -93 -526 -177 4 -4 -21 178 3 -43 -237 rlineto
          18 hlineto
          40 237 177 -3 4 21 -178 -4 93 526 rlineto
          endchar
        </CharString>
        <CharString name="danda">
          -349 21 -21 742 -20 hstem
          100 147 vstem
          230 742 rmoveto
          411 callsubr
          endchar
        </CharString>
        <CharString name="dcaron">
          176 callgsubr
          46 20 74 53 384 callgsubr
          165 30 hintmask 10111111
          781 740 rmoveto
          6 callgsubr
          -721 -470 35 callsubr
          97 45 hvcurveto
          hintmask 01111111
          375 callgsubr
          hintmask 10111111
          212 callsubr
        </CharString>
        <CharString name="dcroat">
          88 205 callgsubr
          103 18 -18 90 384 callgsubr
          hintmask 10110110
          60 270 35 callsubr
          97 45 hvcurveto
          hintmask 01110110
          -30 -166 rlineto
          19 hlineto
          115 650 rlineto
          68 162 callsubr
          -68 hlineto
          hintmask 10101110
          13 72 rlineto
          -19 hlineto
          hintmask 10110110
          -13 -72 rlineto
          -205 hlineto
          -3 -18 rlineto
          205 hlineto
          -48 -275 rlineto
          96 456 callsubr
          212 callsubr
        </CharString>
        <CharString name="degree">
          -220 347 18 308 18 hstem
          70 20 264 20 vstem
          74 519 rmoveto
          -103 -18 47 -69 89 hhcurveto
          89 71 69 103 18 hvcurveto
          103 18 -47 69 -89 hhcurveto
          -89 -71 -69 -103 -18 hvcurveto
          276 hmoveto
          -97 -17 -60 -57 -78 hhcurveto
          -78 -40 57 97 17 hvcurveto
          97 17 60 57 78 hhcurveto
          78 40 -57 -97 -17 hvcurveto
          endchar
        </CharString>
        <CharString name="dieresis">
          -257 627 60 hstem
          132 58 76 58 vstem
          156 627 -85 callsubr
          endchar
        </CharString>
        <CharString name="divide">
          13 371 18 hstemhm
          58 512 -319 52 8 52 hintmask 11000000
          493 callsubr
          509 162 callsubr
          hintmask 10100000
          -298 -249 rmoveto
          8 callsubr
          hintmask 10010000
          60 428 rmoveto
          362 callsubr
        </CharString>
        <CharString name="divide.ss01">
          13 145 49 177 18 180 49 hstem
          327 50 519 callsubr
          509 162 callsubr
          -313 -195 rmoveto
          194 callgsubr
          24 424 rmoveto
          -8 -49 rlineto
          50 hlineto
          8 49 rlineto
          endchar
        </CharString>
        <CharString name="dollar">
          -40 -7 18 -17 17 -17 18 681 17 -17 18 hstemhm
          45 20 40 20 316 21 28 20 hintmask 1000111100000000
          351 800 rmoveto
          -16 -89 rlineto
          -2 -3 0 -2 hhcurveto
          -127 -77 -76 -92 -16 hvcurveto
          -23 -130 94 -31 93 -29 rrcurveto
          hintmask 0010111100000000
          -60 -341 -116 12 -33 91 2 54 rlinecurve
          -20 hlineto
          hintmask 0100111100000000
          -6 -83 57 -81 113 -11 rrcurveto
          hintmask 1000111100000000
          -14 -81 rlineto
          20 hlineto
          14 80 rlineto
          2 3 0 2 hhcurveto
          140 68 95 81 14 hvcurveto
          24 136 -93 33 -94 29 57 325 rcurveline
          hintmask 1000111110000000
          103 -12 32 -75 3 -46 rrcurveto
          20 hlineto
          hintmask 1001011110000000
          -3 63 -40 77 -112 11 rrcurveto
          hintmask 1000111100000000
          16 90 rlineto
          -243 -257 rmoveto
          97 17 79 53 101 hhcurveto
          7 hlineto
          -56 -320 -87 27 -81 30 20 113 rlinecurve
          111 -532 rmoveto
          -7 hlineto
          59 336 87 -28 81 -32 -21 -118 rlinecurve
          -85 -15 -68 -73 -116 hhcurveto
          endchar
        </CharString>
        <CharString name="dotaccent">
          -422 627 60 hstem
          115 60 vstem
          140 627 -28 callsubr
        </CharString>
        <CharString name="dotlessi">
          318 callsubr
          hstem
          37 116 vstem
          74 callsubr
          endchar
        </CharString>
        <CharString name="dottedcircle">
          75 -9 84 -70 84 -52 84 -40 84 -32 84 -23 84 -25 84 -22 84 -32 84 -37 84 -57 84 -69 84 hstemhm
          50 86 -71 86 -56 86 -40 86 -34 86 -21 86 -27 86 -24 86 -33 86 -47 86 -52 86 -76 86 hintmask 000100001000001000000100
          557 409 9 callgsubr
          -376 -286 9 callgsubr
          hintmask 010001000000100010000000
          98 -76 9 callgsubr
          -143 189 9 callgsubr
          hintmask 100000010000010000100000
          267 -203 9 callgsubr
          -252 324 9 callgsubr
          hintmask 001000000100000100001000
          367 -278 9 callgsubr
          -291 377 9 callgsubr
          hintmask 000010000001000001000010
          364 -281 9 callgsubr
          -247 323 9 callgsubr
          hintmask 000000100010000000010001
          257 -203 9 callgsubr
          -136 188 9 callgsubr
          endchar
        </CharString>
        <CharString name="doubledanda">
          -194 21 -21 742 -20 hstem
          100 302 vstem
          230 742 rmoveto
          411 callsubr
          138 hmoveto
          411 callsubr
          endchar
        </CharString>
        <CharString name="dvA">
          240 68 callgsubr
          hstemhm
          60 17 379 17 28 18 hintmask 1100110110000000
          269 424 rmoveto
          -16 callsubr
          hintmask 1110010110000000
          406 callgsubr
          162 hlineto
          2 16 rlineto
          -178 343 callsubr
          hintmask 1101001111000000
          -15 callgsubr
          hintmask 1100110110000000
          -68 -12 -64 -80 -119 hhcurveto
          endchar
        </CharString>
        <CharString name="dvAA">
          364 callgsubr
          hstemhm
          60 17 379 17 28 18 hintmask 1100110110000000
          269 424 rmoveto
          -16 callsubr
          hintmask 1110010110000000
          10 59 -15 56 -40 33 250 -1 rcurveline
          -68 -385 rlineto
          17 hlineto
          361 callgsubr
          -449 343 callsubr
          hintmask 1101001111000000
          -15 callgsubr
          hintmask 1100110110000000
          -68 -12 -64 -80 -119 hhcurveto
          endchar
        </CharString>
        <CharString name="dvAI">
          74 523 callsubr
          208 16 hstem
          96 17 vstem
          296 19 rmoveto
          51 callsubr
          134 -77 callsubr
          -135 hlineto
          215 -95 -46 9 -111 88 callsubr
          105 42 -10 -198 90 hvcurveto
          -568 -105 callsubr
          155 hlineto
          -79 -446 rlineto
          -155 -28 62 -104 160 hhcurveto
          endchar
        </CharString>
        <CharString name="dvAU">
          364 callgsubr
          109 16 124 416 callgsubr
          hintmask 1110010111100000
          329 callsubr
          -76 hlineto
          263 -88 -45 11 -111 -9 callgsubr
          105 45 -6 -112 103 hvcurveto
          -355 343 callsubr
          hintmask 1101001111110000
          -15 callgsubr
          hintmask 1100110111100000
          -68 -12 -64 -80 -119 hhcurveto
          -34 hlineto
          -16 callsubr
          hintmask 1110010111100000
          482 callsubr
        </CharString>
        <CharString name="dvAbbreviationsign">
          -67 204 16 280 16 hstem
          91 327 vstem
          282 516 rmoveto
          -95 -77 -65 -91 -16 hvcurveto
          -91 -16 59 -65 95 hhcurveto
          93 74 64 90 16 hvcurveto
          93 16 -56 65 -93 hhcurveto
          -16 vmoveto
          83 47 -59 -83 -14 hvcurveto
          -81 -15 -68 -57 -83 hhcurveto
          -86 -49 58 82 14 hvcurveto
          82 14 71 58 86 hhcurveto
          endchar
        </CharString>
        <CharString name="dvAcandra">
          240 61 callsubr
          162 hlineto
          2 16 rlineto
          -178 343 callsubr
          hintmask 1101001111100000
          -15 callgsubr
          hintmask 1100110111000000
          -68 -12 -64 -80 -119 hhcurveto
          761 575 44 callgsubr
          endchar
        </CharString>
        <CharString name="dvAnusvara">
          -576 855 48 hstem
          -69 49 vstem
          -20 879 rmoveto
          14 2 -8 10 -15 hhcurveto
          -14 -97 callgsubr
          endchar
        </CharString>
        <CharString name="dvAnusvara.amI">
          -576 855 48 hstem
          89 49 vstem
          138 879 208 callgsubr
        </CharString>
        <CharString name="dvAvagraha">
          -18 75 16 565 16 hstem
          399 17 vstem
          281 75 rmoveto
          92 36 53 48 7 hvcurveto
          27 149 -269 103 25 143 rrcurveto
          69 12 67 16 57 hhcurveto
          178 -77 callsubr
          -182 hlineto
          -69 -69 -21 -79 -14 hvcurveto
          -28 -155 270 -102 -25 -138 rrcurveto
          -46 -7 -40 -40 -68 hhcurveto
          -241 344 callsubr
        </CharString>
        <CharString name="dvB">
          -127 378 callsubr
          77 17 453 15 vstem
          559 355 rmoveto
          106 18 -50 132 -166 -23 callsubr
          146 106 111 124 22 hvcurveto
          -199 222 139 callgsubr
          264 147 -93 callgsubr
          -597 -105 callsubr
          258 -588 rmoveto
          -71 callgsubr
          endchar
        </CharString>
        <CharString name="dvBA">
          114 21 -21 378 callsubr
          78 17 452 11 vstem
          498 hmoveto
          -75 callgsubr
          -760 -105 callsubr
          581 216 callsubr
          -132 -120 -91 -149 -26 hvcurveto
          199 callgsubr
          43 callgsubr
          endchar
        </CharString>
        <CharString name="dvBH">
          -81 136 442 callgsubr
          287 17 hstem
          77 284 callsubr
          vstem
          134 callsubr
          194 459 callgsubr
          -193 hlineto
          20 112 rlineto
          -50 callsubr
          174 callgsubr
        </CharString>
        <CharString name="dvBHA">
          166 21 -21 136 16 277 16 279 353 callgsubr
          hintmask 11110111
          210 152 -42 callgsubr
          hintmask 11101111
          -50 callsubr
          hintmask 11110111
          174 callgsubr
        </CharString>
        <CharString name="dvBH_LA">
          799 104 17 15 442 callgsubr
          99 16 164 353 callgsubr
          119 17 343 -7 callgsubr
          hintmask 1111101111011000
          134 callsubr
          179 hlineto
          -12 -27 -9 -29 -6 -32 rrcurveto
          hintmask 1011101111011000
          -133 -25 60 276 callsubr
          40 -96 -145 -27 188 callsubr
          hintmask 1011101111101000
          -87 callsubr
          205 callsubr
          -70 callgsubr
          -881 -105 callsubr
          570 hlineto
          -29 -164 rlineto
          hintmask 1111011111011000
          -116 -5 -60 -92 -24 -76 383 callgsubr
          -87 -64 -45 -70 -38 hvcurveto
          -184 hlineto
          20 112 rlineto
          -50 callsubr
          hintmask 1111101111011000
          174 callgsubr
        </CharString>
        <CharString name="dvBH_NA">
          682 369 callsubr
          8 16 253 16 50 16 -15 15 213 353 callgsubr
          128 194 callsubr
          hintmask 1111011011111000
          134 callsubr
          200 hlineto
          -21 -27 -14 -32 -6 -36 rrcurveto
          hintmask 1011011011111000
          -101 -17 62 -73 108 hhcurveto
          106 86 73 103 19 -57 callsubr
          161 -77 callsubr
          -720 -105 callsubr
          542 136 callsubr
          -68 -58 -24 -42 -39 hvcurveto
          -211 hlineto
          20 112 rlineto
          hintmask 1111010111111000
          330 callgsubr
          64 50 72 25 callsubr
          55 -63 91 hhcurveto
          hintmask 1111011011111000
          -49 callgsubr
          hintmask 1011101011111000
          194 9 -24 callgsubr
          endchar
        </CharString>
        <CharString name="dvBH_R">
          -93 156 16 257 16 287 17 hstem
          81 17 52 17 253 16 vstem
          214 172 210 callgsubr
          180 173 rmoveto
          15 84 rlineto
          193 -77 callsubr
          -194 hlineto
          20 112 rlineto
          170 callgsubr
          92 66 62 127 22 hvcurveto
          -175 -405 rmoveto
          350 299 4 24 -380 -323 rlineto
          endchar
        </CharString>
        <CharString name="dvBH_RA">
          187 21 -21 156 470 callgsubr
          81 17 52 17 253 16 hintmask 11110111
          214 172 210 callgsubr
          180 173 rmoveto
          15 84 rlineto
          220 hlineto
          -25 -139 -411 -350 rlineto
          26 hlineto
          381 325 -47 -265 rlineto
          198 callgsubr
          hintmask 11101111
          170 callgsubr
          hintmask 11110111
          174 callgsubr
        </CharString>
        <CharString name="dvBH_R_YA">
          626 398 callgsubr
          2 470 callgsubr
          80 18 52 17 253 16 130 15 hintmask 1011101111000000
          214 172 rmoveto
          -79 -49 55 83 15 hvcurveto
          73 13 71 46 85 hhcurveto
          122 hlineto
          -15 -85 453 callsubr
          180 173 rmoveto
          15 84 rlineto
          167 hlineto
          -2 279 callsubr
          -10 -55 2 -49 13 -39 -384 -327 rcurveline
          26 hlineto
          364 312 rlineto
          hintmask 1101101111000000
          -73 31 72 -41 102 -5 callgsubr
          hintmask 1011011111000000
          330 callgsubr
          62 50 74 hhcurveto
          88 26 -68 -108 -19 hvcurveto
          -19 -111 rlineto
          -123 hlineto
          -96 -75 -53 -82 -17 hvcurveto
          -90 -19 58 -64 91 hhcurveto
          hintmask 1011101111000000
          -49 callgsubr
          hintmask 1101101111000000
          398 -191 10 callsubr
          endchar
        </CharString>
        <CharString name="dvBH_VA">
          593 319 callgsubr
          -5 442 callgsubr
          127 16 136 16 -8 17 hstemhm
          77 534 callsubr
          hintmask 1101110111110000
          766 141 -103 callsubr
          hintmask 1011110111110000
          -556 11 155 callgsubr
          185 454 callsubr
          hintmask 1101110111110000
          -76 callgsubr
          3 16 rlineto
          -655 -105 callsubr
          476 -39 callgsubr
          -99 -93 -53 -90 -49 hvcurveto
          -189 hlineto
          20 112 rlineto
          hintmask 1011101111110000
          -50 callsubr
          hintmask 1011110111110000
          174 callgsubr
        </CharString>
        <CharString name="dvBH_YA">
          626 573 callgsubr
          279 353 callgsubr
          130 15 hintmask 1101101111000000
          102 callsubr
          hintmask 1011101111000000
          582 2 10 callsubr
          hintmask 1101101111000000
          -402 171 506 callsubr
          hintmask 1011101111000000
          -171 -31 86 -101 161 -5 callgsubr
          hintmask 1101011111000000
          -50 callsubr
          hintmask 1101101111000000
          174 callgsubr
        </CharString>
        <CharString name="dvB_BA">
          574 370 callsubr
          441 244 callgsubr
          445 16 -10 10 452 11 hintmask 11111101
          561 callsubr
          hintmask 11111011
          147 50 -110 -100 -12 hvcurveto
          -1 -4 -1 -5 -1 -5 -1 -4 0 -3 -1 -4 -11 -45 -26 -51 -41 -39 -268 311 rcurveline
          hintmask 11111101
          188 callgsubr
          598 -577 rmoveto
          -75 callgsubr
          -1220 -105 callsubr
          1041 216 callsubr
          -111 -102 -64 -109 -46 hvcurveto
          88 -8 -59 85 -133 -23 callsubr
          119 93 74 95 42 hvcurveto
          -107 9 87 -62 110 hhcurveto
          120 84 70 78 40 hvcurveto
          -48 -268 rlineto
          -195 136 26 callgsubr
          -461 hmoveto
          -71 callgsubr
          535 441 15 callgsubr
          endchar
        </CharString>
        <CharString name="dvB_BHA">
          612 333 callgsubr
          -8 17 hstemhm
          77 17 429 17 7 14 305 16 hintmask 1011110110100000
          656 152 -42 callgsubr
          hintmask 1101101101100000
          110 callsubr
          hintmask 1101110101100000
          384 callsubr
          -682 -105 callsubr
          690 hlineto
          hintmask 1101101101100000
          5 15 16 3 17 127 callsubr
          -66 -56 -27 -46 -35 hvcurveto
          102 11 -53 119 -158 -23 callsubr
          hintmask 1101110110100000
          106 85 59 80 47 hvcurveto
          hintmask 1011110110100000
          -75 2 52 -48 79 -6 callgsubr
          hintmask 1101110101100000
          -476 252 rmoveto
          220 callgsubr
          -18 hvcurveto
          -2 -11 -3 -11 -3 -11 rrcurveto
          -1 -2 -1 -2 -2 vvcurveto
          -14 -38 -23 -39 -34 -32 -268 311 rcurveline
          188 callgsubr
          -75 -441 rmoveto
          -71 callgsubr
          endchar
        </CharString>
        <CharString name="dvB_BH_RA">
          633 370 callsubr
          20 16 257 16 132 321 callgsubr
          -8 17 hstemhm
          77 17 434 16 3 15 304 16 hintmask 1101110101100000
          561 callsubr
          220 callgsubr
          -18 hvcurveto
          -1 -4 -1 -4 -1 -5 -4 -10 -4 -11 -2 -11 rrcurveto
          -1 vlineto
          -14 -36 -23 -36 -31 -30 -268 311 rcurveline
          188 callgsubr
          -75 -441 rmoveto
          -71 callgsubr
          hintmask 1111110110100000
          375 36 rmoveto
          -79 -49 55 82 15 hvcurveto
          3 9 3 9 2 8 rrcurveto
          58 24 62 36 75 hhcurveto
          122 hlineto
          -15 -85 453 callsubr
          56 552 rmoveto
          hintmask 1101101101100000
          5 16 16 3 17 hhcurveto
          88 26 -68 -108 -19 hvcurveto
          -19 -111 rlineto
          -123 hlineto
          -66 -56 -25 -42 -34 hvcurveto
          101 7 -54 114 -154 -23 callsubr
          hintmask 1101110110100000
          110 87 63 84 46 hvcurveto
          hintmask 1111110110100000
          -68 6 50 -43 76 -6 callgsubr
          15 84 rlineto
          220 hlineto
          -25 -139 -411 -350 rlineto
          26 hlineto
          381 325 -47 -265 rlineto
          198 callgsubr
          hintmask 1101101101100000
          110 callsubr
          hintmask 1101110101100000
          384 callsubr
          -682 344 callsubr
        </CharString>
        <CharString name="dvB_DA">
          492 370 callsubr
          -7 16 427 16 -11 244 callgsubr
          446 17 -10 10 -10 14 hintmask 1100111010000000
          360 577 139 callgsubr
          -75 -441 rmoveto
          -71 callgsubr
          880 588 -93 callgsubr
          -1138 -105 callsubr
          951 hlineto
          hintmask 1101011001000000
          -25 -136 rlineto
          -104 hlineto
          -122 -117 -50 -119 -49 hvcurveto
          hintmask 1100111001000000
          89 -8 -59 85 -133 -23 callsubr
          hintmask 1101011100000000
          121 93 76 97 41 hvcurveto
          hintmask 1011011100000000
          -99 8 73 -65 111 hhcurveto
          91 81 48 64 33 hvcurveto
          -42 -241 rlineto
          17 hlineto
          56 321 rlineto
          -15 hlineto
          -128 -22 -117 -48 -80 hhcurveto
          hintmask 1011011010000000
          213 callgsubr
        </CharString>
        <CharString name="dvB_DHA">
          554 233 callgsubr
          -12 16 288 16 -8 8 137 16 131 298 callgsubr
          77 17 477 17 281 17 hintmask 1011011011100000
          324 callgsubr
          943 588 577 callsubr
          -179 hlineto
          -1 -8 -65 -372 rlineto
          hintmask 1101010111100000
          -133 -24 -124 -95 -131 hhcurveto
          -103 -79 53 102 17 hvcurveto
          75 13 64 62 -74 callgsubr
          -21 -20 -3 -7 -19 hvcurveto
          1 vlineto
          hintmask 1010111011100000
          -667 -105 callsubr
          636 183 callsubr
          -60 -5 -64 -39 -24 -75 181 callsubr
          hintmask 1101011011100000
          -90 2 80 -50 100 hhcurveto
          114 101 63 96 51 hvcurveto
          -48 -275 123 callsubr
        </CharString>
        <CharString name="dvB_DH_VA">
          1015 233 callgsubr
          -12 16 -11 16 283 16 -8 8 132 16 -11 16 131 298 callgsubr
          77 17 427 544 callgsubr
          hintmask 1010101010111111
          324 callgsubr
          1241 588 59 callsubr
          -642 -105 callsubr
          463 -39 callgsubr
          -122 -115 -81 -133 -30 hvcurveto
          hintmask 1100101001111111
          -159 -41 -108 -30 callsubr
          -21 -20 -3 -7 -19 hvcurveto
          1 vlineto
          hintmask 1010010110111111
          -667 -105 callsubr
          636 183 callsubr
          -59 -5 -64 -39 -24 -75 rrcurveto
          -1 hlineto
          181 callsubr
          hintmask 1100101010111111
          -92 -3 77 -48 108 hhcurveto
          134 99 67 124 53 hvcurveto
          hintmask 1001101010111111
          430 callsubr
          17 hlineto
          -211 141 -103 callsubr
          endchar
        </CharString>
        <CharString name="dvB_JA">
          697 370 callsubr
          23 458 callgsubr
          68 331 callgsubr
          hintmask 1101111100000000
          285 136 rmoveto
          -71 callgsubr
          1085 588 -93 callgsubr
          -1343 -105 callsubr
          1165 414 callgsubr
          hintmask 1111111100000000
          105 callgsubr
          hintmask 1101111100000000
          350 callgsubr
          hintmask 1111111100000000
          6 -73 50 -50 76 364 callsubr
          -849 -147 rmoveto
          hintmask 1101111010000000
          250 callsubr
          hintmask 1111111100000000
          188 callgsubr
          endchar
        </CharString>
        <CharString name="dvB_JHA">
          693 0 16 104 16 162 226 callsubr
          15 254 callgsubr
          84 17 810 17 hintmask 1101101110000000
          292 136 rmoveto
          -120 -91 549 callgsubr
          266 -309 rcurveline
          -38 -40 -53 -25 -70 hhcurveto
          902 588 rmoveto
          -72 -410 rlineto
          -417 416 callsubr
          99 18 77 118 callgsubr
          115 -724 rmoveto
          108 callgsubr
          -1339 -105 callsubr
          917 57 callsubr
          -10 -54 -9 -54 -26 -63 -45 -47 rlinecurve
          hintmask 1110111110000000
          -265 308 rlineto
          38 47 58 20 60 hhcurveto
          33 28 -6 -9 24 hvcurveto
          3 17 rlineto
          9 -24 -28 5 -33 hhcurveto
          -132 -123 -91 399 callgsubr
          -146 -25 95 -87 131 hhcurveto
          149 97 115 131 26 hvcurveto
          -47 19 55 -21 67 hhcurveto
          45 hlineto
          121 57 -56 -92 -17 hvcurveto
          -70 -12 -58 -64 -114 hhcurveto
          -132 -52 76 81 1 hvcurveto
          -15 hlineto
          -44 -244 rlineto
          17 hlineto
          34 188 rlineto
          -29 5 37 -88 145 hhcurveto
          125 66 70 80 14 hvcurveto
          hintmask 1101101110000000
          16 89 -45 45 -60 16 283 536 callsubr
        </CharString>
        <CharString name="dvB_J_YA">
          1154 370 callsubr
          2 16 5 16 287 16 99 331 callgsubr
          544.5 16 hintmask 1010111110100000
          561 callsubr
          hintmask 1010111101100000
          250 callsubr
          hintmask 1010111110100000
          188 callgsubr
          hintmask 1100111110100000
          -75 -441 rmoveto
          -71 callgsubr
          hintmask 1010111110100000
          1036 18 19 callsubr
          -1801 -105 callsubr
          1354 198 callsubr
          hintmask 1001111110100000
          105 callgsubr
          hintmask 1100111110100000
          350 callgsubr
          hintmask 1001111110100000
          6 -73 50 -50 76 -1 107 -1 74 76 18 106 21 122 rcurveline
          208 hlineto
          5 5 0 6 hhcurveto
          174 callsubr
          hintmask 1010111110100000
          186 callgsubr
        </CharString>
        <CharString name="dvB_JxA">
          697 11 48 -38 476 callsubr
          23 458 callgsubr
          68 331 callgsubr
          71.5 49 hintmask 1010111110100000
          677 35 rmoveto
          -105 callgsubr
          -392 101 rmoveto
          -71 callgsubr
          1085 588 -93 callgsubr
          -1343 -105 callsubr
          1165 414 callgsubr
          hintmask 0111111110000000
          105 callgsubr
          hintmask 0110111110000000
          350 callgsubr
          hintmask 0111111110000000
          6 -73 50 -50 76 364 callsubr
          -849 -147 rmoveto
          hintmask 0110111101000000
          250 callsubr
          hintmask 0111111110000000
          188 callgsubr
          endchar
        </CharString>
        <CharString name="dvB_LA">
          779 104 17 -1 16 408 16 17 244 callgsubr
          441 17 -5 15 333 -7 callgsubr
          hintmask 1010111001100000
          1007 120 callgsubr
          -1425 -105 callsubr
          1114 86 callgsubr
          hintmask 1010110101100000
          -98 -69 -57 -86 -35 hvcurveto
          hintmask 0111110101100000
          89 -8 -58 87 -135 -23 callsubr
          hintmask 0110111001100000
          115 91 69 91 44 hvcurveto
          hintmask 1010111001100000
          -103 2 62 -73 123 hhcurveto
          11 8 1 1 10 hvcurveto
          -44 callsubr
          -138 -50 96 124 22 541 callgsubr
          70 88 100 callsubr
          40 -96 -145 -27 188 callsubr
          hintmask 1010111010100000
          -87 callsubr
          hintmask 1010111001100000
          205 callsubr
          hintmask 0111110101100000
          -722 32 rmoveto
          -71 callgsubr
          75 441 rmoveto
          150 49 -115 -102 -15 hvcurveto
          -2 -6 -1 -6 -1 -7 -11 -45 -26 -50 -41 -39 -268 311 rcurveline
          188 callgsubr
          endchar
        </CharString>
        <CharString name="dvB_L_YA">
          1300 428 callgsubr
          -1 16 2 16 285 16 89 16 17 244 callgsubr
          442 17 -6 15 330 231 callgsubr
          19 329 15 hintmask 1010110111001100
          285 136 rmoveto
          -71 callgsubr
          hintmask 1001110110101100
          1181 18 rmoveto
          -153 -84 99 167 417 callsubr
          3 hlineto
          128 104 41 155 27 -96 callsubr
          2 callgsubr
          -1946 -105 callsubr
          1499 175 callgsubr
          -149 -26 -104 322 callgsubr
          -69 -58 -87 -35 hvcurveto
          hintmask 1010111110101100
          90 -7 -58 88 -136 -23 callsubr
          hintmask 1010110111001100
          117 91 71 92 43 hvcurveto
          hintmask 1101110111001100
          -104 2 60 -75 125 hhcurveto
          11 8 1 1 10 hvcurveto
          -44 callsubr
          -138 -50 96 124 22 541 callgsubr
          70 88 100 callsubr
          355 callgsubr
          hintmask 1001110111010100
          17 hlineto
          1 8 19 149 83 86 235 callsubr
          hintmask 1001111110101100
          -1451 -147 139 callgsubr
          endchar
        </CharString>
        <CharString name="dvB_NA">
          655 370 callsubr
          24 285 callgsubr
          66 244 callgsubr
          444 16 -7 15 328 17 hintmask 1111011110100000
          557 -24 callsubr
          -197 243 rmoveto
          hintmask 1100111101100000
          55 callgsubr
          hintmask 1111011110100000
          188 callgsubr
          hintmask 1100111101100000
          -75 -441 rmoveto
          -71 callgsubr
          1043 588 -93 callgsubr
          -1301 -105 callsubr
          1123 136 callsubr
          -90 -71 -42 -68 -37 hvcurveto
          95 -1 -58 97 -142 -23 callsubr
          hintmask 1100111110100000
          118 92 73 93 43 hvcurveto
          hintmask 1110111110100000
          -75 6 59 -51 90 -63 callgsubr
        </CharString>
        <CharString name="dvB_R">
          -127 378 callsubr
          77 17 453 15 vstem
          624 -52 callsubr
          -597 -105 callsubr
          532 -369 rmoveto
          106 18 -50 132 -166 -23 callsubr
          32 30 5 10 28 hvcurveto
          -235 -181 rlineto
          23 hlineto
          282 218 61 44 40 67 13 72 rlinecurve
          -199 222 139 callgsubr
          -75 -441 rmoveto
          -71 callgsubr
          endchar
        </CharString>
        <CharString name="dvB_RA">
          114 21 -21 378 callsubr
          78 17 452 11 vstem
          457 180 373 callgsubr
          -760 -105 callsubr
          581 535 callgsubr
          -137 -118 -91 -149 -26 hvcurveto
          115 callsubr
          endchar
        </CharString>
        <CharString name="dvB_SA">
          681 -9 16 14 476 callsubr
          258 15 -15 16 167 244 callgsubr
          418 18 17 15 hintmask 1010111110000000
          561 callsubr
          hintmask 1010111111000000
          55 callgsubr
          hintmask 1010111110000000
          188 callgsubr
          -75 -441 rmoveto
          -71 callgsubr
          626 475 241 callgsubr
          hintmask 1011011110000000
          243 callsubr
          hintmask 1010111110000000
          24 callgsubr
          -1327 -105 callsubr
          889 101 callgsubr
          -37 callgsubr
          hintmask 1010111111000000
          -101 hlineto
          92 -5 -58 91 -138 -23 callsubr
          110 87 63 84 46 hvcurveto
          -11 -62 rlineto
          hintmask 1010111110000000
          -106 callgsubr
          33 190 rlineto
          550 hlineto
          hintmask 0110111110000000
          -69 -394 -30 callgsubr
        </CharString>
        <CharString name="dvB_SHA">
          637 -9 16 14 476 callsubr
          213 16 212 16 131 298 callgsubr
          77 17 418 17 18 12 -12 13 385 16 hintmask 1011110110010000
          884 199 rmoveto
          444 callgsubr
          -18 -77 -75 -101 hhcurveto
          -115 -43 82 115 21 hvcurveto
          hintmask 1011101111010000
          25 145 459 callsubr
          131 107 67 130 24 hvcurveto
          392 callgsubr
          hintmask 1011110110010000
          -22 -22 -3 -6 -20 hvcurveto
          -706 -105 callsubr
          709 hlineto
          hintmask 1011101110110000
          6 19 23 3 22 331 callsubr
          -138 hlineto
          104 14 -52 124 -161 -23 callsubr
          110 87 63 84 46 hvcurveto
          -11 -62 rlineto
          hintmask 1011110110010000
          -127 -23 51 -87 127 hhcurveto
          108 callsubr
          -524 378 rmoveto
          hintmask 1011110110110000
          55 callgsubr
          hintmask 1011110110010000
          188 callgsubr
          -75 -441 rmoveto
          -71 callgsubr
          hintmask 0111110110010000
          736 -136 rmoveto
          -75 callgsubr
          -179 hlineto
          -130 -740 rlineto
          endchar
        </CharString>
        <CharString name="dvB_TA">
          557 2 16 102 16 351 16 74 244 callgsubr
          417 17 19 14 hintmask 11111110
          561 callsubr
          hintmask 11111111
          55 callgsubr
          hintmask 11111110
          188 callgsubr
          -75 -441 rmoveto
          -71 callgsubr
          945 588 -93 callgsubr
          -1203 -105 callsubr
          1025 240 callsubr
          hintmask 11111111
          -126 -101 -41 -89 -58 hvcurveto
          102 10 -53 118 -157 -23 callsubr
          100 81 52 73 49 hvcurveto
          hintmask 11111110
          -154 -24 85 -89 156 -83 callgsubr
          161 29 119 73 163 hhcurveto
          166 hlineto
          92 callgsubr
          endchar
        </CharString>
        <CharString name="dvB_VA">
          566 370 callsubr
          -11 16 431 16 -11 244 callgsubr
          446 17 -10 10 -10 14 438 11 hintmask 1011011010100000
          739 141 -103 callsubr
          hintmask 1100111010100000
          -379 436 139 callgsubr
          -75 -441 rmoveto
          -71 callgsubr
          957 604 rmoveto
          -1212 -105 callsubr
          1033 527 callgsubr
          hintmask 1011011001100000
          80 -12 -59 68 -125 hhcurveto
          -108 -101 -63 -106 -44 hvcurveto
          hintmask 1100111001100000
          89 -8 -59 85 -133 -23 callsubr
          hintmask 1101011100100000
          121 93 76 96 41 hvcurveto
          hintmask 1011011100100000
          -107 8 81 -60 110 -62 callsubr
          endchar
        </CharString>
        <CharString name="dvB_YA">
          606 370 callsubr
          2 16 285 16 122 244 callgsubr
          453 12.5 hintmask 10111111
          1279 -52 callsubr
          -1252 -105 callsubr
          805 175 callgsubr
          -149 -27 -100 -31 -112 hhcurveto
          -23 hlineto
          74 -19 -60 64 -115 hhcurveto
          -132 -121 -91 399 callgsubr
          hintmask 11011111
          -146 -25 98 -87 131 hhcurveto
          129 98 87 106 36 hvcurveto
          hintmask 10111111
          -109 16 79 -66 125 12 callsubr
          hintmask 11011111
          -832 -588 rmoveto
          -71 callgsubr
          hintmask 10111111
          116 callsubr
        </CharString>
        <CharString name="dvC">
          -99 239 callsubr
          vstem
          433 525 rmoveto
          74 callgsubr
          130 114 104 114 16 hvcurveto
          -14 hlineto
          -106 -18 -106 -96 217 callgsubr
          19 96 89 133 hhcurveto
          246 199 -93 callgsubr
          -623 344 callsubr
        </CharString>
        <CharString name="dvCA">
          93 callsubr
          99 90 60 79 44 hvcurveto
          -45 -254 rlineto
          17 hlineto
          128 724 rlineto
          endchar
        </CharString>
</ttFont>
